<svg width="22" height="22" viewBox="0 0 22 22" fill="none" xmlns="http://www.w3.org/2000/svg">
<mask id="mask0_1_535" style="mask-type:alpha" maskUnits="userSpaceOnUse" x="0" y="0" width="22" height="22">
<rect width="22" height="22" fill="#D9D9D9"/>
</mask>
<g mask="url(#mask0_1_535)">
<path d="M5.50008 18.3333C4.99591 18.3333 4.56432 18.1538 4.20529 17.7948C3.84626 17.4358 3.66675 17.0042 3.66675 16.5C3.66675 15.9958 3.84626 15.5642 4.20529 15.2052C4.56432 14.8462 4.99591 14.6667 5.50008 14.6667C6.00425 14.6667 6.43585 14.8462 6.79487 15.2052C7.1539 15.5642 7.33341 15.9958 7.33341 16.5C7.33341 17.0042 7.1539 17.4358 6.79487 17.7948C6.43585 18.1538 6.00425 18.3333 5.50008 18.3333ZM11.0001 18.3333C10.4959 18.3333 10.0643 18.1538 9.70529 17.7948C9.34626 17.4358 9.16675 17.0042 9.16675 16.5C9.16675 15.9958 9.34626 15.5642 9.70529 15.2052C10.0643 14.8462 10.4959 14.6667 11.0001 14.6667C11.5042 14.6667 11.9358 14.8462 12.2949 15.2052C12.6539 15.5642 12.8334 15.9958 12.8334 16.5C12.8334 17.0042 12.6539 17.4358 12.2949 17.7948C11.9358 18.1538 11.5042 18.3333 11.0001 18.3333ZM16.5001 18.3333C15.9959 18.3333 15.5643 18.1538 15.2053 17.7948C14.8463 17.4358 14.6667 17.0042 14.6667 16.5C14.6667 15.9958 14.8463 15.5642 15.2053 15.2052C15.5643 14.8462 15.9959 14.6667 16.5001 14.6667C17.0042 14.6667 17.4358 14.8462 17.7949 15.2052C18.1539 15.5642 18.3334 15.9958 18.3334 16.5C18.3334 17.0042 18.1539 17.4358 17.7949 17.7948C17.4358 18.1538 17.0042 18.3333 16.5001 18.3333ZM5.50008 12.8333C4.99591 12.8333 4.56432 12.6538 4.20529 12.2948C3.84626 11.9358 3.66675 11.5042 3.66675 11C3.66675 10.4958 3.84626 10.0642 4.20529 9.70521C4.56432 9.34619 4.99591 9.16667 5.50008 9.16667C6.00425 9.16667 6.43585 9.34619 6.79487 9.70521C7.1539 10.0642 7.33341 10.4958 7.33341 11C7.33341 11.5042 7.1539 11.9358 6.79487 12.2948C6.43585 12.6538 6.00425 12.8333 5.50008 12.8333ZM11.0001 12.8333C10.4959 12.8333 10.0643 12.6538 9.70529 12.2948C9.34626 11.9358 9.16675 11.5042 9.16675 11C9.16675 10.4958 9.34626 10.0642 9.70529 9.70521C10.0643 9.34619 10.4959 9.16667 11.0001 9.16667C11.5042 9.16667 11.9358 9.34619 12.2949 9.70521C12.6539 10.0642 12.8334 10.4958 12.8334 11C12.8334 11.5042 12.6539 11.9358 12.2949 12.2948C11.9358 12.6538 11.5042 12.8333 11.0001 12.8333ZM16.5001 12.8333C15.9959 12.8333 15.5643 12.6538 15.2053 12.2948C14.8463 11.9358 14.6667 11.5042 14.6667 11C14.6667 10.4958 14.8463 10.0642 15.2053 9.70521C15.5643 9.34619 15.9959 9.16667 16.5001 9.16667C17.0042 9.16667 17.4358 9.34619 17.7949 9.70521C18.1539 10.0642 18.3334 10.4958 18.3334 11C18.3334 11.5042 18.1539 11.9358 17.7949 12.2948C17.4358 12.6538 17.0042 12.8333 16.5001 12.8333ZM5.50008 7.33334C4.99591 7.33334 4.56432 7.15382 4.20529 6.7948C3.84626 6.43577 3.66675 6.00417 3.66675 5.50001C3.66675 4.99584 3.84626 4.56424 4.20529 4.20521C4.56432 3.84619 4.99591 3.66667 5.50008 3.66667C6.00425 3.66667 6.43585 3.84619 6.79487 4.20521C7.1539 4.56424 7.33341 4.99584 7.33341 5.50001C7.33341 6.00417 7.1539 6.43577 6.79487 6.7948C6.43585 7.15382 6.00425 7.33334 5.50008 7.33334ZM11.0001 7.33334C10.4959 7.33334 10.0643 7.15382 9.70529 6.7948C9.34626 6.43577 9.16675 6.00417 9.16675 5.50001C9.16675 4.99584 9.34626 4.56424 9.70529 4.20521C10.0643 3.84619 10.4959 3.66667 11.0001 3.66667C11.5042 3.66667 11.9358 3.84619 12.2949 4.20521C12.6539 4.56424 12.8334 4.99584 12.8334 5.50001C12.8334 6.00417 12.6539 6.43577 12.2949 6.7948C11.9358 7.15382 11.5042 7.33334 11.0001 7.33334ZM16.5001 7.33334C15.9959 7.33334 15.5643 7.15382 15.2053 6.7948C14.8463 6.43577 14.6667 6.00417 14.6667 5.50001C14.6667 4.99584 14.8463 4.56424 15.2053 4.20521C15.5643 3.84619 15.9959 3.66667 16.5001 3.66667C17.0042 3.66667 17.4358 3.84619 17.7949 4.20521C18.1539 4.56424 18.3334 4.99584 18.3334 5.50001C18.3334 6.00417 18.1539 6.43577 17.7949 6.7948C17.4358 7.15382 17.0042 7.33334 16.5001 7.33334Z" fill="white"/>
</g>
</svg>
