<svg width="16" height="20" viewBox="0 0 16 20" fill="none" xmlns="http://www.w3.org/2000/svg">
<path d="M0.667969 19.1666V4.49998H4.33464C4.33464 3.49165 4.69366 2.62845 5.41172 1.9104C6.12977 1.19234 6.99297 0.833313 8.0013 0.833313C9.00964 0.833313 9.87283 1.19234 10.5909 1.9104C11.3089 2.62845 11.668 3.49165 11.668 4.49998H15.3346V19.1666H0.667969ZM6.16797 4.49998H9.83464C9.83464 3.99581 9.65512 3.56422 9.29609 3.20519C8.93707 2.84616 8.50547 2.66665 8.0013 2.66665C7.49714 2.66665 7.06554 2.84616 6.70651 3.20519C6.34748 3.56422 6.16797 3.99581 6.16797 4.49998ZM2.5013 17.3333H13.5013V6.33331H11.668V9.08331H9.83464V6.33331H6.16797V9.08331H4.33464V6.33331H2.5013V17.3333Z" fill="#050505"/>
</svg>
