<svg width="80" height="80" viewBox="0 0 80 80" fill="none" xmlns="http://www.w3.org/2000/svg">
<g id="quote 1">
<path id="Vector" d="M15.6654 59C12.332 55.3334 10.332 51.3334 10.332 44.6667C10.332 33 18.6654 22.6667 30.332 17.3334L33.332 21.6667C22.332 27.6667 19.9987 35.3334 19.332 40.3334C20.9987 39.3334 23.332 39 25.6654 39.3334C31.6654 40 36.332 44.6667 36.332 51C36.332 54 34.9987 57 32.9987 59.3334C30.6654 61.6667 27.9987 62.6667 24.6654 62.6667C20.9987 62.6667 17.6654 61 15.6654 59ZM48.9987 59C45.6654 55.3334 43.6654 51.3334 43.6654 44.6667C43.6654 33 51.9987 22.6667 63.6654 17.3334L66.6654 21.6667C55.6654 27.6667 53.332 35.3334 52.6654 40.3334C54.332 39.3334 56.6654 39 58.9987 39.3334C64.9987 40 69.6654 44.6667 69.6654 51C69.6654 54 68.332 57 66.332 59.3334C64.332 61.6667 61.332 62.6667 57.9987 62.6667C54.332 62.6667 50.9987 61 48.9987 59Z" fill="#050505"/>
</g>
</svg>
