<svg width="20" height="19" viewBox="0 0 20 19" fill="none" xmlns="http://www.w3.org/2000/svg">
<path d="M2.66536 14.5833V16.4167H17.332V14.5833H2.66536ZM0.832031 4.50001H4.68203C4.60564 4.36251 4.55599 4.21737 4.53307 4.06459C4.51016 3.91182 4.4987 3.7514 4.4987 3.58334C4.4987 2.81945 4.76606 2.17015 5.30078 1.63543C5.8355 1.1007 6.48481 0.833344 7.2487 0.833344C7.70703 0.833344 8.13099 0.951746 8.52057 1.18855C8.91016 1.42536 9.25009 1.71945 9.54036 2.07084L9.9987 2.66668L10.457 2.07084C10.732 1.70418 11.0681 1.40626 11.4654 1.17709C11.8626 0.947927 12.2904 0.833344 12.7487 0.833344C13.5126 0.833344 14.1619 1.1007 14.6966 1.63543C15.2313 2.17015 15.4987 2.81945 15.4987 3.58334C15.4987 3.7514 15.4872 3.91182 15.4643 4.06459C15.4414 4.21737 15.3918 4.36251 15.3154 4.50001H19.1654V18.25H0.832031V4.50001ZM2.66536 11.8333H17.332V6.33334H12.657L14.582 8.94584L13.1154 10L9.9987 5.78334L6.88203 10L5.41536 8.94584L7.29453 6.33334H2.66536V11.8333ZM7.2487 4.50001C7.50842 4.50001 7.72613 4.41216 7.90182 4.23647C8.07752 4.06077 8.16536 3.84307 8.16536 3.58334C8.16536 3.32362 8.07752 3.10591 7.90182 2.93022C7.72613 2.75452 7.50842 2.66668 7.2487 2.66668C6.98898 2.66668 6.77127 2.75452 6.59557 2.93022C6.41988 3.10591 6.33203 3.32362 6.33203 3.58334C6.33203 3.84307 6.41988 4.06077 6.59557 4.23647C6.77127 4.41216 6.98898 4.50001 7.2487 4.50001ZM12.7487 4.50001C13.0084 4.50001 13.2261 4.41216 13.4018 4.23647C13.5775 4.06077 13.6654 3.84307 13.6654 3.58334C13.6654 3.32362 13.5775 3.10591 13.4018 2.93022C13.2261 2.75452 13.0084 2.66668 12.7487 2.66668C12.489 2.66668 12.2713 2.75452 12.0956 2.93022C11.9199 3.10591 11.832 3.32362 11.832 3.58334C11.832 3.84307 11.9199 4.06077 12.0956 4.23647C12.2713 4.41216 12.489 4.50001 12.7487 4.50001Z" fill="#050505"/>
</svg>
