<svg width="22" height="22" viewBox="0 0 22 22" fill="none" xmlns="http://www.w3.org/2000/svg">
<mask id="mask0_1_530" style="mask-type:alpha" maskUnits="userSpaceOnUse" x="0" y="0" width="22" height="22">
<rect width="22" height="22" fill="#D9D9D9"/>
</mask>
<g mask="url(#mask0_1_530)">
<path d="M3.66675 20.1667V5.49999H7.33341C7.33341 4.49166 7.69244 3.62847 8.4105 2.91041C9.12855 2.19236 9.99175 1.83333 11.0001 1.83333C12.0084 1.83333 12.8716 2.19236 13.5897 2.91041C14.3077 3.62847 14.6667 4.49166 14.6667 5.49999H18.3334V20.1667H3.66675ZM9.16675 5.49999H12.8334C12.8334 4.99583 12.6539 4.56423 12.2949 4.2052C11.9358 3.84618 11.5042 3.66666 11.0001 3.66666C10.4959 3.66666 10.0643 3.84618 9.70529 4.2052C9.34626 4.56423 9.16675 4.99583 9.16675 5.49999ZM5.50008 18.3333H16.5001V7.33333H14.6667V10.0833H12.8334V7.33333H9.16675V10.0833H7.33341V7.33333H5.50008V18.3333Z" fill="white"/>
</g>
</svg>
