<svg width="56" height="56" viewBox="0 0 56 56" fill="none" xmlns="http://www.w3.org/2000/svg">
<circle cx="28" cy="28" r="28" fill="#C6F906"/>
<mask id="mask0_1_4798" style="mask-type:alpha" maskUnits="userSpaceOnUse" x="17" y="17" width="22" height="22">
<rect x="17" y="17" width="22" height="22" fill="#D9D9D9"/>
</mask>
<g mask="url(#mask0_1_4798)">
<path d="M20.668 37.1666V22.5H24.3346C24.3346 21.4916 24.6937 20.6285 25.4117 19.9104C26.1298 19.1923 26.993 18.8333 28.0013 18.8333C29.0096 18.8333 29.8728 19.1923 30.5909 19.9104C31.3089 20.6285 31.668 21.4916 31.668 22.5H35.3346V37.1666H20.668ZM26.168 22.5H29.8346C29.8346 21.9958 29.6551 21.5642 29.2961 21.2052C28.9371 20.8462 28.5055 20.6666 28.0013 20.6666C27.4971 20.6666 27.0655 20.8462 26.7065 21.2052C26.3475 21.5642 26.168 21.9958 26.168 22.5ZM22.5013 35.3333H33.5013V24.3333H31.668V27.0833H29.8346V24.3333H26.168V27.0833H24.3346V24.3333H22.5013V35.3333Z" fill="#050505"/>
</g>
</svg>
