<svg width="80" height="80" viewBox="0 0 80 80" fill="none" xmlns="http://www.w3.org/2000/svg">
<path d="M40 8C22.3806 8 8 22.3806 8 40C8 57.6195 22.3806 72 40 72C57.6194 72 72 57.6195 72 40C72 22.3806 57.6194 8 40 8ZM16.9393 40C16.9393 33.3927 19.7895 27.3037 24.3239 23.1579C26.1376 21.4737 29.247 21.9919 30.5425 24.1943L38.5749 38.0567C39.3522 39.3522 39.3522 40.9069 38.5749 42.2024L30.5425 56.0648C29.247 58.3968 26.1377 58.7854 24.1943 56.9717C19.7895 52.5668 16.9393 46.6073 16.9393 40ZM49.4575 55.8057L41.4251 41.9433C40.6478 40.6478 40.6478 39.0931 41.4251 37.7976L49.4575 23.9352C50.753 21.7328 53.7328 21.2146 55.6761 22.8988C60.2105 27.0445 63.0607 33.1336 63.0607 39.7409C63.0607 46.3482 60.2105 52.4373 55.6761 56.583C53.7328 58.6559 50.753 58.1377 49.4575 55.8057Z" fill="#050505"/>
</svg>
