<svg width="80" height="80" viewBox="0 0 80 80" fill="none" xmlns="http://www.w3.org/2000/svg">
<path d="M20.75 22.375H20V34.5H34.75C36.125 34.5 36.625 36.375 35.375 37L32.5 38.375C28.625 40.25 24.75 41.25 20.75 41.25H20V53.375H34.375C35.75 53.375 36.25 55.25 35 55.875L32 57.25C28.375 59 24.5 59.875 20.75 59.875H20V72H34.375L36 70C43 61.875 51.125 57.625 59.625 57.625H60.25V45.5H45.875C44.5 45.5 44 43.625 45.25 43L48.25 41.625C51.875 39.875 55.75 39 59.5 39H60.125V26.875H45.5C44.125 26.875 43.625 25 44.875 24.375L47.75 23C51.625 21.125 55.5 20.125 59.5 20.125H60.125V8H45.75L44.125 10C37.375 18.125 29.125 22.375 20.75 22.375Z" fill="#050505"/>
</svg>
