<svg width="80" height="80" viewBox="0 0 80 80" fill="none" xmlns="http://www.w3.org/2000/svg">
<path d="M29.4953 33.3814C37.8748 29.3738 44.4327 22.5731 48.1974 14.0721C45.7685 11.5218 42.611 9.70019 39.2106 8.60721L37.389 8C37.2676 8.24288 37.1461 8.60723 37.1461 8.85011C34.2315 17.1082 28.2809 23.7875 20.2657 27.5522C14.6793 30.2239 10.5503 35.0816 8.60721 40.9108L8 42.7325C8.24288 42.8539 8.60722 42.9753 8.8501 42.9753C11.1575 43.8254 13.4649 44.9184 15.6509 46.2543C18.6869 40.7894 23.5446 36.1746 29.4953 33.3814Z" fill="#050505"/>
<path d="M64.7136 33.8672C60.2202 40.6679 54.0267 46.1329 46.3758 49.7761C40.1823 52.6907 35.446 58.1557 33.26 64.7135L32.6528 66.778C34.9602 68.8425 37.7534 70.4213 40.7895 71.3929L42.6111 72.0001C42.7325 71.7572 42.854 71.3928 42.854 71.15C45.7686 62.8919 51.7193 56.2126 59.7344 52.4479C65.3208 49.7761 69.5713 44.9184 71.3929 39.0892L72.0001 37.2676C69.4498 36.5389 67.021 35.3245 64.7136 33.8672Z" fill="#050505"/>
<path d="M27.7951 60.4631C30.8312 53.1765 36.4175 47.2258 43.5826 43.8255C50.1405 40.668 55.6054 35.8103 59.3701 29.8596C56.5769 27.1879 54.2695 24.1518 52.5693 20.5085C48.076 28.7666 41.0323 35.446 32.41 39.575C27.4308 41.8824 23.4232 45.89 20.9944 50.7477C23.6661 53.298 25.8521 56.4554 27.5523 59.9773C27.5523 59.9773 27.6737 60.2202 27.7951 60.4631Z" fill="#050505"/>
</svg>
