<svg width="80" height="80" viewBox="0 0 80 80" fill="none" xmlns="http://www.w3.org/2000/svg">
<g id="quote 1">
<path id="Vector" d="M15.6666 59.0002C12.3333 55.3335 10.3333 51.3335 10.3333 44.6668C10.3333 33.0002 18.6666 22.6668 30.3333 17.3335L33.3333 21.6668C22.3333 27.6668 20 35.3335 19.3333 40.3335C21 39.3335 23.3333 39.0002 25.6666 39.3335C31.6666 40.0002 36.3333 44.6668 36.3333 51.0002C36.3333 54.0002 35 57.0002 33 59.3335C30.6666 61.6668 28 62.6668 24.6666 62.6668C21 62.6668 17.6666 61.0002 15.6666 59.0002ZM49 59.0002C45.6667 55.3335 43.6666 51.3335 43.6666 44.6668C43.6666 33.0002 52 22.6668 63.6667 17.3335L66.6667 21.6668C55.6666 27.6668 53.3333 35.3335 52.6667 40.3335C54.3333 39.3335 56.6667 39.0002 59 39.3335C65 40.0002 69.6667 44.6668 69.6667 51.0002C69.6667 54.0002 68.3333 57.0002 66.3333 59.3335C64.3333 61.6668 61.3333 62.6668 58 62.6668C54.3333 62.6668 51 61.0002 49 59.0002Z" fill="#C6F906"/>
</g>
</svg>
