<svg width="100" height="100" viewBox="0 0 100 100" fill="none" xmlns="http://www.w3.org/2000/svg">
<path d="M67.2734 37.6953H72.8242C73.0045 37.6953 73.1774 37.6237 73.3048 37.4962C73.4323 37.3688 73.5039 37.1959 73.5039 37.0156V31.4707C73.5039 31.2904 73.4323 31.1176 73.3048 30.9901C73.1774 30.8626 73.0045 30.791 72.8242 30.791H67.2734C67.0932 30.791 66.9203 30.8626 66.7928 30.9901C66.6654 31.1176 66.5938 31.2904 66.5938 31.4707V37.0215C66.5953 37.2007 66.6676 37.3721 66.7949 37.4983C66.9222 37.6245 67.0942 37.6953 67.2734 37.6953ZM67.9531 32.1445H72.1445V36.3359H67.9531V32.1445Z" fill="#050505"/>
<path d="M77.5391 37.6953H83.0898C83.2701 37.6953 83.443 37.6237 83.5705 37.4962C83.6979 37.3688 83.7695 37.1959 83.7695 37.0156V31.4707C83.7695 31.2904 83.6979 31.1176 83.5705 30.9901C83.443 30.8626 83.2701 30.791 83.0898 30.791H77.5391C77.3588 30.791 77.1859 30.8626 77.0585 30.9901C76.931 31.1176 76.8594 31.2904 76.8594 31.4707V37.0215C76.8609 37.2007 76.9332 37.3721 77.0605 37.4983C77.1878 37.6245 77.3598 37.6953 77.5391 37.6953ZM78.2188 32.1445H82.4023V36.3359H78.2109L78.2188 32.1445Z" fill="#050505"/>
<path d="M67.2734 47.1387H72.8242C73.0045 47.1387 73.1774 47.0671 73.3048 46.9396C73.4323 46.8121 73.5039 46.6392 73.5039 46.459V40.9082C73.5039 40.7279 73.4323 40.5551 73.3048 40.4276C73.1774 40.3001 73.0045 40.2285 72.8242 40.2285H67.2734C67.0932 40.2285 66.9203 40.3001 66.7928 40.4276C66.6654 40.5551 66.5938 40.7279 66.5938 40.9082V46.459C66.5938 46.6392 66.6654 46.8121 66.7928 46.9396C66.9203 47.0671 67.0932 47.1387 67.2734 47.1387ZM67.9531 41.5879H72.1445V45.7793H67.9531V41.5879Z" fill="#050505"/>
<path d="M77.5391 47.1387H83.0898C83.2701 47.1387 83.443 47.0671 83.5705 46.9396C83.6979 46.8121 83.7695 46.6392 83.7695 46.459V40.9082C83.7695 40.7279 83.6979 40.5551 83.5705 40.4276C83.443 40.3001 83.2701 40.2285 83.0898 40.2285H77.5391C77.3588 40.2285 77.1859 40.3001 77.0585 40.4276C76.931 40.5551 76.8594 40.7279 76.8594 40.9082V46.459C76.8594 46.6392 76.931 46.8121 77.0585 46.9396C77.1859 47.0671 77.3588 47.1387 77.5391 47.1387ZM78.2188 41.5879H82.4023V45.7793H78.2109L78.2188 41.5879Z" fill="#050505"/>
<path d="M20.7031 47.1387H26.2539C26.4342 47.1387 26.6071 47.0671 26.7345 46.9396C26.862 46.8121 26.9336 46.6392 26.9336 46.459V40.9082C26.9336 40.7279 26.862 40.5551 26.7345 40.4276C26.6071 40.3001 26.4342 40.2285 26.2539 40.2285H20.7031C20.5229 40.2285 20.35 40.3001 20.2225 40.4276C20.095 40.5551 20.0234 40.7279 20.0234 40.9082V46.459C20.0234 46.6392 20.095 46.8121 20.2225 46.9396C20.35 47.0671 20.5229 47.1387 20.7031 47.1387ZM21.3828 41.5879H25.5859V45.7793H21.3887L21.3828 41.5879Z" fill="#050505"/>
<path d="M31.2715 47.1387H36.8223C37.0025 47.1387 37.1754 47.0671 37.3029 46.9396C37.4303 46.8121 37.502 46.6392 37.502 46.459V40.9082C37.502 40.7279 37.4303 40.5551 37.3029 40.4276C37.1754 40.3001 37.0025 40.2285 36.8223 40.2285H31.2715C31.0912 40.2285 30.9183 40.3001 30.7909 40.4276C30.6634 40.5551 30.5918 40.7279 30.5918 40.9082V46.459C30.5918 46.6392 30.6634 46.8121 30.7909 46.9396C30.9183 47.0671 31.0912 47.1387 31.2715 47.1387ZM31.9512 41.5879H36.1426V45.7793H31.9512V41.5879Z" fill="#050505"/>
<path d="M41.834 47.1387H47.3848C47.565 47.1387 47.7379 47.0671 47.8654 46.9396C47.9928 46.8121 48.0645 46.6393 48.0645 46.459V40.9082C48.0645 40.7279 47.9928 40.5551 47.8654 40.4276C47.7379 40.3001 47.565 40.2285 47.3848 40.2285H41.834C41.7447 40.2283 41.6562 40.2457 41.5736 40.2797C41.491 40.3138 41.416 40.3639 41.3528 40.427C41.2896 40.4902 41.2396 40.5652 41.2055 40.6478C41.1714 40.7304 41.154 40.8189 41.1543 40.9082V46.459C41.1543 46.6393 41.2259 46.8121 41.3534 46.9396C41.4808 47.0671 41.6537 47.1387 41.834 47.1387ZM42.5137 41.5879H46.7051V45.7793H42.5137V41.5879Z" fill="#050505"/>
<path d="M52.3945 47.1387H57.9473C58.1275 47.1387 58.3004 47.0671 58.4279 46.9396C58.5553 46.8121 58.627 46.6392 58.627 46.459V40.9082C58.627 40.7279 58.5553 40.5551 58.4279 40.4276C58.3004 40.3001 58.1275 40.2285 57.9473 40.2285H52.3945C52.2143 40.2285 52.0414 40.3001 51.9139 40.4276C51.7865 40.5551 51.7148 40.7279 51.7148 40.9082V46.459C51.7148 46.6392 51.7865 46.8121 51.9139 46.9396C52.0414 47.0671 52.2143 47.1387 52.3945 47.1387ZM53.0742 41.5879H57.2676V45.7793H53.0742V41.5879Z" fill="#050505"/>
<path d="M67.2734 56.5742H72.8242C72.9135 56.5742 73.0019 56.5566 73.0843 56.5225C73.1668 56.4883 73.2417 56.4383 73.3048 56.3751C73.3679 56.312 73.418 56.2371 73.4522 56.1546C73.4863 56.0722 73.5039 55.9838 73.5039 55.8945V50.3438C73.5039 50.1635 73.4323 49.9906 73.3048 49.8631C73.1774 49.7357 73.0045 49.6641 72.8242 49.6641H67.2734C67.0932 49.6641 66.9203 49.7357 66.7928 49.8631C66.6654 49.9906 66.5938 50.1635 66.5938 50.3438V55.8945C66.5938 55.9838 66.6113 56.0722 66.6455 56.1546C66.6796 56.2371 66.7297 56.312 66.7928 56.3751C66.8559 56.4383 66.9309 56.4883 67.0133 56.5225C67.0958 56.5566 67.1842 56.5742 67.2734 56.5742ZM67.9531 51.0234H72.1445V55.2148H67.9531V51.0234Z" fill="#050505"/>
<path d="M77.5391 56.5742H83.0898C83.1791 56.5742 83.2675 56.5566 83.35 56.5225C83.4324 56.4883 83.5073 56.4383 83.5705 56.3751C83.6336 56.312 83.6836 56.2371 83.7178 56.1546C83.752 56.0722 83.7695 55.9838 83.7695 55.8945V50.3438C83.7695 50.1635 83.6979 49.9906 83.5705 49.8631C83.443 49.7357 83.2701 49.6641 83.0898 49.6641H77.5391C77.3588 49.6641 77.1859 49.7357 77.0585 49.8631C76.931 49.9906 76.8594 50.1635 76.8594 50.3438V55.8945C76.8594 55.9838 76.877 56.0722 76.9111 56.1546C76.9453 56.2371 76.9953 56.312 77.0585 56.3751C77.1216 56.4383 77.1965 56.4883 77.279 56.5225C77.3614 56.5566 77.4498 56.5742 77.5391 56.5742ZM78.2188 51.0234H82.4023V55.2148H78.2109L78.2188 51.0234Z" fill="#050505"/>
<path d="M67.2735 66.0156H72.8242C73.0045 66.0156 73.1774 65.944 73.3048 65.8165C73.4323 65.6891 73.5039 65.5162 73.5039 65.3359V59.7812C73.5039 59.692 73.4863 59.6036 73.4522 59.5211C73.418 59.4387 73.368 59.3638 73.3048 59.3006C73.2417 59.2375 73.1668 59.1875 73.0843 59.1533C73.0019 59.1191 72.9135 59.1016 72.8242 59.1016H67.2735C67.1842 59.1016 67.0958 59.1191 67.0133 59.1533C66.9309 59.1875 66.856 59.2375 66.7928 59.3006C66.7297 59.3638 66.6797 59.4387 66.6455 59.5211C66.6113 59.6036 66.5938 59.692 66.5938 59.7812V65.332C66.5932 65.4216 66.6105 65.5104 66.6444 65.5933C66.6783 65.6763 66.7283 65.7516 66.7915 65.8152C66.8546 65.8787 66.9297 65.9291 67.0124 65.9635C67.0952 65.9979 67.1839 66.0156 67.2735 66.0156ZM67.9531 60.4648H72.1445V64.6484H67.9531V60.4648Z" fill="#050505"/>
<path d="M77.5391 66.0156H83.0898C83.2701 66.0156 83.443 65.944 83.5705 65.8165C83.6979 65.6891 83.7695 65.5162 83.7695 65.3359V59.7812C83.7695 59.692 83.7519 59.6036 83.7178 59.5211C83.6836 59.4387 83.6336 59.3638 83.5705 59.3006C83.5073 59.2375 83.4324 59.1875 83.3499 59.1533C83.2675 59.1191 83.1791 59.1016 83.0898 59.1016H77.5391C77.4498 59.1016 77.3614 59.1191 77.279 59.1533C77.1965 59.1875 77.1216 59.2375 77.0585 59.3006C76.9953 59.3638 76.9453 59.4387 76.9111 59.5211C76.877 59.6036 76.8594 59.692 76.8594 59.7812V65.332C76.8589 65.4216 76.8761 65.5104 76.91 65.5933C76.9439 65.6763 76.9939 65.7516 77.0571 65.8152C77.1202 65.8787 77.1953 65.9291 77.2781 65.9635C77.3608 65.9979 77.4495 66.0156 77.5391 66.0156ZM78.2188 60.4648H82.4023V64.6484H78.2109L78.2188 60.4648Z" fill="#050505"/>
<path d="M67.2734 75.4492H72.8242C73.0045 75.4492 73.1774 75.3776 73.3048 75.2501C73.4323 75.1227 73.5039 74.9498 73.5039 74.7695V69.2187C73.5039 69.0385 73.4323 68.8656 73.3048 68.7381C73.1774 68.6107 73.0045 68.5391 72.8242 68.5391H67.2734C67.0945 68.5411 66.9237 68.6136 66.7979 68.7409C66.6721 68.8681 66.6016 69.0398 66.6016 69.2187V74.7695C66.6016 74.9484 66.6721 75.1202 66.7979 75.2474C66.9237 75.3746 67.0945 75.4472 67.2734 75.4492ZM67.9531 69.8984H72.1445V74.0898H67.9531V69.8984Z" fill="#050505"/>
<path d="M77.5391 75.4492H83.0898C83.2701 75.4492 83.443 75.3776 83.5705 75.2501C83.6979 75.1227 83.7695 74.9498 83.7695 74.7695V69.2187C83.7695 69.0385 83.6979 68.8656 83.5705 68.7381C83.443 68.6107 83.2701 68.5391 83.0898 68.5391H77.5391C77.3588 68.5391 77.1859 68.6107 77.0585 68.7381C76.931 68.8656 76.8594 69.0385 76.8594 69.2187V74.7695C76.8594 74.9498 76.931 75.1227 77.0585 75.2501C77.1859 75.3776 77.3588 75.4492 77.5391 75.4492ZM78.2188 69.8984H82.4023V74.0898H78.2109L78.2188 69.8984Z" fill="#050505"/>
<path d="M67.2734 84.8867H72.8242C73.0045 84.8867 73.1774 84.8151 73.3048 84.6876C73.4323 84.5602 73.5039 84.3873 73.5039 84.207V78.6563C73.5039 78.476 73.4323 78.3031 73.3048 78.1756C73.1774 78.0482 73.0045 77.9766 72.8242 77.9766H67.2734C67.0932 77.9766 66.9203 78.0482 66.7928 78.1756C66.6654 78.3031 66.5938 78.476 66.5938 78.6563V84.207C66.5938 84.3873 66.6654 84.5602 66.7928 84.6876C66.9203 84.8151 67.0932 84.8867 67.2734 84.8867ZM67.9531 79.3359H72.1445V83.5273H67.9531V79.3359Z" fill="#050505"/>
<path d="M77.5391 84.8867H83.0898C83.2701 84.8867 83.443 84.8151 83.5705 84.6876C83.6979 84.5602 83.7695 84.3873 83.7695 84.207V78.6563C83.7695 78.476 83.6979 78.3031 83.5705 78.1756C83.443 78.0482 83.2701 77.9766 83.0898 77.9766H77.5391C77.3588 77.9766 77.1859 78.0482 77.0585 78.1756C76.931 78.3031 76.8594 78.476 76.8594 78.6563V84.207C76.8594 84.3873 76.931 84.5602 77.0585 84.6876C77.1859 84.8151 77.3588 84.8867 77.5391 84.8867ZM78.2188 79.3359H82.4023V83.5273H78.2109L78.2188 79.3359Z" fill="#050505"/>
<path d="M91.2109 88.0684H87.9785V20.6855C87.9793 20.5963 87.9625 20.5078 87.929 20.425C87.8956 20.3422 87.8462 20.2669 87.7836 20.2032C87.721 20.1396 87.6465 20.0888 87.5643 20.054C87.4822 20.0191 87.3939 20.0008 87.3047 20H63.4551C63.2748 20 63.1019 20.0716 62.9745 20.1991C62.847 20.3265 62.7754 20.4994 62.7754 20.6797V31.4219H9.58008C9.39981 31.4219 9.22693 31.4935 9.09947 31.6209C8.972 31.7484 8.90039 31.9213 8.90039 32.1016V37.7656C8.90039 37.9459 8.972 38.1188 9.09947 38.2462C9.22693 38.3737 9.39981 38.4453 9.58008 38.4453H14.8789V88.0547H8.78906C8.60776 88.0547 8.43389 88.1267 8.30569 88.2549C8.17749 88.3831 8.10547 88.557 8.10547 88.7383C8.10547 88.9196 8.17749 89.0935 8.30569 89.2217C8.43389 89.3499 8.60776 89.4219 8.78906 89.4219H91.2109C91.3922 89.4219 91.5661 89.3499 91.6943 89.2217C91.8225 89.0935 91.8945 88.9196 91.8945 88.7383C91.8945 88.557 91.8225 88.3831 91.6943 88.2549C91.5661 88.1267 91.3922 88.0547 91.2109 88.0547V88.0684ZM56.3535 87.9668H42.1875V72.9277H56.3594L56.3535 87.9668ZM57.0332 71.5606H23.8281V67.9551H59.1797V71.5664L57.0332 71.5606ZM26.6523 72.9277H40.8203V87.9668H26.6484L26.6523 72.9277ZM10.2598 32.7871H62.7754V37.0957H10.2598V32.7871ZM63.4551 38.4512C63.6353 38.4512 63.8082 38.3796 63.9357 38.2521C64.0632 38.1246 64.1348 37.9517 64.1348 37.7715V21.3652H86.6191V87.9668H57.7129V72.9277H59.8613C59.9506 72.9277 60.039 72.9102 60.1214 72.876C60.2039 72.8418 60.2788 72.7918 60.3419 72.7287C60.4051 72.6655 60.4551 72.5906 60.4893 72.5082C60.5234 72.4257 60.541 72.3373 60.541 72.2481V67.2754C60.541 67.0951 60.4694 66.9222 60.3419 66.7948C60.2145 66.6673 60.0416 66.5957 59.8613 66.5957H45.4961C47.0604 65.7111 48.2876 64.3334 48.9861 62.6777C49.6846 61.0219 49.8151 59.1815 49.3571 57.4437C48.8992 55.706 47.8785 54.1689 46.4547 53.0726C45.0308 51.9762 43.2839 51.3823 41.4869 51.3836C39.6898 51.3849 37.9438 51.9814 36.5216 53.0798C35.0994 54.1783 34.081 55.7169 33.6256 57.4553C33.1701 59.1936 33.3033 61.0339 34.0042 62.6886C34.7052 64.3433 35.9344 65.7193 37.5 66.6016H23.1406C23.0514 66.6016 22.963 66.6191 22.8805 66.6533C22.7981 66.6875 22.7231 66.7375 22.66 66.8006C22.5969 66.8638 22.5468 66.9387 22.5127 67.0211C22.4785 67.1036 22.4609 67.192 22.4609 67.2813V72.2461C22.4609 72.4264 22.5325 72.5992 22.66 72.7267C22.7875 72.8542 22.9604 72.9258 23.1406 72.9258H25.2891V87.9649H16.2383V38.4551L63.4551 38.4512ZM41.498 66.2949C40.1584 66.2949 38.8488 65.8977 37.7349 65.1534C36.621 64.4091 35.7529 63.3513 35.2402 62.1136C34.7275 60.8759 34.5934 59.514 34.8548 58.2001C35.1161 56.8861 35.7612 55.6792 36.7085 54.7319C37.6558 53.7847 38.8627 53.1396 40.1766 52.8782C41.4905 52.6168 42.8524 52.751 44.0901 53.2636C45.3278 53.7763 46.3857 54.6445 47.13 55.7584C47.8742 56.8723 48.2715 58.1818 48.2715 59.5215C48.2699 61.3174 47.5558 63.0394 46.2859 64.3093C45.0159 65.5793 43.294 66.2934 41.498 66.2949Z" fill="#050505"/>
<path d="M44.125 55.3926C43.9447 55.3926 43.7719 55.4642 43.6444 55.5917C43.5169 55.7191 43.4453 55.892 43.4453 56.0723V58.5137H39.5527V56.0723C39.5527 55.891 39.4807 55.7171 39.3525 55.5889C39.2243 55.4607 39.0504 55.3887 38.8691 55.3887C38.6878 55.3887 38.514 55.4607 38.3858 55.5889C38.2576 55.7171 38.1855 55.891 38.1855 56.0723V62.3223C38.1855 62.5036 38.2576 62.6774 38.3858 62.8056C38.514 62.9338 38.6878 63.0059 38.8691 63.0059C39.0504 63.0059 39.2243 62.9338 39.3525 62.8056C39.4807 62.6774 39.5527 62.5036 39.5527 62.3223V59.8809H43.4453V62.3223C43.4453 62.5036 43.5173 62.6774 43.6455 62.8056C43.7737 62.9338 43.9476 63.0059 44.1289 63.0059C44.3102 63.0059 44.4841 62.9338 44.6123 62.8056C44.7405 62.6774 44.8125 62.5036 44.8125 62.3223V56.0723C44.8125 55.9823 44.7947 55.8933 44.76 55.8103C44.7254 55.7274 44.6746 55.6521 44.6107 55.5889C44.5467 55.5257 44.4709 55.4758 44.3875 55.4421C44.3041 55.4084 44.2149 55.3915 44.125 55.3926Z" fill="#050505"/>
<path d="M19.2363 12.4316H31.0352V15.3223H29.1523C27.9801 15.3223 26.8559 15.7879 26.027 16.6168C25.1981 17.4457 24.7324 18.57 24.7324 19.7422C24.7324 20.9144 25.1981 22.0386 26.027 22.8675C26.8559 23.6964 27.9801 24.1621 29.1523 24.1621H31.3301V27.0918H27.4453C27.2231 27.0918 27.01 27.0035 26.8528 26.8464C26.6957 26.6892 26.6074 26.4761 26.6074 26.2539C26.6074 26.0726 26.5354 25.8987 26.4072 25.7705C26.279 25.6423 26.1051 25.5703 25.9238 25.5703C25.7425 25.5703 25.5687 25.6423 25.4405 25.7705C25.3123 25.8987 25.2402 26.0726 25.2402 26.2539C25.2408 26.8368 25.4727 27.3957 25.8851 27.8077C26.2974 28.2197 26.8565 28.4512 27.4395 28.4512H42.3535C42.5348 28.4512 42.7087 28.3791 42.8369 28.2509C42.9651 28.1228 43.0371 27.9489 43.0371 27.7676C43.0371 27.5863 42.9651 27.4124 42.8369 27.2842C42.7087 27.156 42.5348 27.084 42.3535 27.084H38.7168V22.8711C39.2192 22.2623 39.4952 21.4983 39.498 20.709V16.6816H51.7812C51.9615 16.6816 52.1344 16.61 52.2619 16.4826C52.3893 16.3551 52.4609 16.1822 52.4609 16.002V11.252C52.4544 11.0697 52.3775 10.8971 52.2464 10.7704C52.1153 10.6437 51.9402 10.5727 51.7578 10.5723C50.7717 10.5727 49.8036 10.8375 48.9545 11.339C48.1054 11.8405 47.4062 12.5604 46.9297 13.4238L45.8828 15.3223H32.4062V12.4316H44.2051C44.3864 12.4316 44.5603 12.3596 44.6885 12.2314C44.8167 12.1032 44.8887 11.9293 44.8887 11.748C44.8887 11.5667 44.8167 11.3929 44.6885 11.2647C44.5603 11.1365 44.3864 11.0645 44.2051 11.0645H19.2363C19.055 11.0645 18.8812 11.1365 18.753 11.2647C18.6248 11.3929 18.5527 11.5667 18.5527 11.748C18.5527 11.9293 18.6248 12.1032 18.753 12.2314C18.8812 12.3596 19.055 12.4316 19.2363 12.4316ZM48.1152 14.0801C48.4214 13.5269 48.8496 13.0507 49.3675 12.6879C49.8853 12.3251 50.479 12.0852 51.1035 11.9863V15.3223H47.4316L48.1152 14.0801ZM32.6855 27.1016V24.1719H36.043C36.4927 24.1711 36.938 24.0822 37.3535 23.9102V27.1113L32.6855 27.1016ZM38.1406 20.7031C38.1401 21.2583 37.9193 21.7905 37.5268 22.1831C37.1343 22.5756 36.602 22.7964 36.0469 22.7969H29.1523C28.7504 22.7969 28.3524 22.7177 27.9811 22.5639C27.6098 22.4101 27.2724 22.1847 26.9882 21.9005C26.704 21.6163 26.4786 21.2789 26.3248 20.9075C26.171 20.5362 26.0918 20.1382 26.0918 19.7363C26.0918 19.3344 26.171 18.9364 26.3248 18.5651C26.4786 18.1938 26.704 17.8564 26.9882 17.5722C27.2724 17.288 27.6098 17.0626 27.9811 16.9088C28.3524 16.7549 28.7504 16.6758 29.1523 16.6758H38.1367L38.1406 20.7031Z" fill="#050505"/>
</svg>
