<svg width="22" height="22" viewBox="0 0 22 22" fill="none" xmlns="http://www.w3.org/2000/svg">
<mask id="mask0_1_3338" style="mask-type:alpha" maskUnits="userSpaceOnUse" x="0" y="0" width="22" height="22">
<rect width="22" height="22" fill="#D9D9D9"/>
</mask>
<g mask="url(#mask0_1_3338)">
<path d="M10.9993 11C11.5035 11 11.9351 10.8205 12.2941 10.4614C12.6532 10.1024 12.8327 9.67081 12.8327 9.16665C12.8327 8.66248 12.6532 8.23088 12.2941 7.87185C11.9351 7.51283 11.5035 7.33331 10.9993 7.33331C10.4952 7.33331 10.0636 7.51283 9.70456 7.87185C9.34553 8.23088 9.16602 8.66248 9.16602 9.16665C9.16602 9.67081 9.34553 10.1024 9.70456 10.4614C10.0636 10.8205 10.4952 11 10.9993 11ZM10.9993 17.7375C12.8632 16.0264 14.2459 14.4719 15.1473 13.0739C16.0487 11.676 16.4993 10.4347 16.4993 9.34998C16.4993 7.6847 15.9684 6.32116 14.9066 5.25935C13.8448 4.19755 12.5424 3.66665 10.9993 3.66665C9.45629 3.66665 8.15386 4.19755 7.09206 5.25935C6.03025 6.32116 5.49935 7.6847 5.49935 9.34998C5.49935 10.4347 5.95004 11.676 6.85143 13.0739C7.75282 14.4719 9.13546 16.0264 10.9993 17.7375ZM10.9993 20.1666C8.53963 18.0736 6.70247 16.1295 5.48789 14.3344C4.27331 12.5392 3.66602 10.8778 3.66602 9.34998C3.66602 7.05831 4.40317 5.23262 5.87747 3.8729C7.35178 2.51317 9.05907 1.83331 10.9993 1.83331C12.9396 1.83331 14.6469 2.51317 16.1212 3.8729C17.5955 5.23262 18.3327 7.05831 18.3327 9.34998C18.3327 10.8778 17.7254 12.5392 16.5108 14.3344C15.2962 16.1295 13.4591 18.0736 10.9993 20.1666Z" fill="#050505"/>
</g>
</svg>
