<svg width="22" height="22" viewBox="0 0 22 22" fill="none" xmlns="http://www.w3.org/2000/svg">
<mask id="mask0_1_3343" style="mask-type:alpha" maskUnits="userSpaceOnUse" x="0" y="0" width="22" height="22">
<rect width="22" height="22" fill="#D9D9D9"/>
</mask>
<g mask="url(#mask0_1_3343)">
<path d="M17.4167 11C17.4167 9.2125 16.7941 7.69618 15.549 6.45104C14.3038 5.2059 12.7875 4.58333 11 4.58333V2.75C12.1458 2.75 13.2191 2.96771 14.2198 3.40313C15.2205 3.83854 16.0913 4.42674 16.8323 5.16771C17.5733 5.90868 18.1615 6.77951 18.5969 7.78021C19.0323 8.7809 19.25 9.85417 19.25 11H17.4167ZM13.75 11C13.75 10.2361 13.4826 9.58681 12.9479 9.05208C12.4132 8.51736 11.7639 8.25 11 8.25V6.41667C12.2681 6.41667 13.349 6.86354 14.2427 7.75729C15.1365 8.65104 15.5833 9.73194 15.5833 11H13.75ZM18.2875 19.25C16.3167 19.25 14.3955 18.8146 12.524 17.9438C10.6524 17.0729 8.99479 15.9118 7.55104 14.4604C6.10729 13.009 4.94618 11.3476 4.06771 9.47604C3.18924 7.60451 2.75 5.68333 2.75 3.7125V3.23125C2.75 3.06319 2.76528 2.90278 2.79583 2.75H8.15833L9.00625 7.35625L6.39375 9.99167C7.03542 11.0917 7.84132 12.1229 8.81146 13.0854C9.7816 14.0479 10.8472 14.8806 12.0083 15.5833L14.6667 12.925L19.25 13.8417V19.2042C19.0972 19.2194 18.9368 19.2309 18.7688 19.2385C18.6007 19.2462 18.4403 19.25 18.2875 19.25ZM5.52292 8.25L7.03542 6.7375L6.64583 4.58333H4.60625C4.68264 5.20972 4.78958 5.82847 4.92708 6.43958C5.06458 7.05069 5.26319 7.65417 5.52292 8.25ZM13.7271 16.4542C14.3229 16.7139 14.9302 16.9201 15.549 17.0729C16.1677 17.2257 16.7903 17.325 17.4167 17.3708V15.3542L15.2625 14.9188L13.7271 16.4542Z" fill="#050505"/>
</g>
</svg>
