<svg width="80" height="80" viewBox="0 0 80 80" fill="none" xmlns="http://www.w3.org/2000/svg">
<g id="modern-house 1" clip-path="url(#clip0_1_1049)">
<g id="Layer_x0020_1">
<g id="_310269408">
<g id="Group">
<g id="Group_2">
<g id="_270710048">
<path id="Vector" fill-rule="evenodd" clip-rule="evenodd" d="M71.5625 32.0312H58.9062C58.2812 32.0312 57.9688 31.7188 57.9688 31.0938V18.4375C57.9688 17.9688 58.2812 17.5 58.9062 17.5H71.5625C72.0312 17.5 72.5 17.9688 72.5 18.4375V31.0938C72.5 31.7188 72.0312 32.0312 71.5625 32.0312ZM59.8438 30.1562H70.625V19.375H59.8438V30.1562Z" fill="black"/>
</g>
<g id="_270709544">
<path id="Vector_2" fill-rule="evenodd" clip-rule="evenodd" d="M71.5625 25.7812H58.9062C58.2812 25.7812 57.9688 25.3125 57.9688 24.8438C57.9688 24.2188 58.2812 23.9062 58.9062 23.9062H71.5625C72.0312 23.9062 72.5 24.2188 72.5 24.8438C72.5 25.3125 72.0312 25.7812 71.5625 25.7812Z" fill="black"/>
</g>
<g id="_270709664">
<path id="Vector_3" fill-rule="evenodd" clip-rule="evenodd" d="M65.1562 32.0312C64.6875 32.0312 64.2188 31.7188 64.2188 31.0938V18.4375C64.2188 17.9688 64.6875 17.5 65.1562 17.5C65.625 17.5 66.0938 17.9688 66.0938 18.4375V31.0938C66.0938 31.7188 65.625 32.0312 65.1562 32.0312Z" fill="black"/>
</g>
</g>
<g id="Group_3">
<g id="_270709784">
<path id="Vector_4" fill-rule="evenodd" clip-rule="evenodd" d="M35.4688 64.375H13.4375C12.9688 64.375 12.5 64.0625 12.5 63.4375V41.5625C12.5 41.0938 12.9688 40.625 13.4375 40.625H35.4688C35.9375 40.625 36.4062 41.0938 36.4062 41.5625V63.4375C36.4062 64.0625 35.9375 64.375 35.4688 64.375ZM14.375 62.5H34.5312V42.5H14.375V62.5Z" fill="black"/>
</g>
<g id="_270710840">
<path id="Vector_5" fill-rule="evenodd" clip-rule="evenodd" d="M35.4688 53.4375H13.4375C12.9688 53.4375 12.5 53.125 12.5 52.5C12.5 52.0312 12.9688 51.5625 13.4375 51.5625H35.4688C35.9375 51.5625 36.4062 52.0312 36.4062 52.5C36.4062 53.125 35.9375 53.4375 35.4688 53.4375Z" fill="black"/>
</g>
<g id="_270710696">
<path id="Vector_6" fill-rule="evenodd" clip-rule="evenodd" d="M24.5312 64.375C23.9062 64.375 23.5938 64.0625 23.5938 63.4375V41.5625C23.5938 41.0938 23.9062 40.625 24.5312 40.625C25 40.625 25.4688 41.0938 25.4688 41.5625V63.4375C25.4688 64.0625 25 64.375 24.5312 64.375Z" fill="black"/>
</g>
</g>
<g id="_270709928">
<path id="Vector_7" fill-rule="evenodd" clip-rule="evenodd" d="M79.0625 79.0625H0.9375C0.3125 79.0625 0 78.5938 0 78.125V70.625C0 70.1562 0.3125 69.6875 0.9375 69.6875H79.0625C79.6875 69.6875 80 70.1562 80 70.625V78.125C80 78.5938 79.6875 79.0625 79.0625 79.0625ZM1.875 77.1875H78.125V71.5625H1.875V77.1875Z" fill="black"/>
</g>
<g id="_270710528">
<path id="Vector_8" fill-rule="evenodd" clip-rule="evenodd" d="M74.5312 71.5625H5.46875C5 71.5625 4.53125 71.25 4.53125 70.625V35.9375C4.53125 35.4688 5 35 5.46875 35H74.5312C75 35 75.4688 35.4688 75.4688 35.9375V70.625C75.4688 71.25 75 71.5625 74.5312 71.5625ZM6.40625 69.6875H73.5938V36.875H6.40625V69.6875Z" fill="black"/>
</g>
<g id="_270710168">
<path id="Vector_9" fill-rule="evenodd" clip-rule="evenodd" d="M51.25 36.875H0.9375C0.3125 36.875 0 36.4062 0 35.9375V28.5938C0 27.9688 0.3125 27.6562 0.9375 27.6562H51.25C51.7188 27.6562 52.1875 27.9688 52.1875 28.5938V35.9375C52.1875 36.4062 51.7188 36.875 51.25 36.875ZM1.875 35H50.3125V29.5312H1.875V35Z" fill="black"/>
</g>
<g id="_270710192">
<path id="Vector_10" fill-rule="evenodd" clip-rule="evenodd" d="M79.0625 36.875H51.25C50.7812 36.875 50.3125 36.4062 50.3125 35.9375V1.875C50.3125 1.5625 50.4688 1.25 50.7812 1.09375C51.0938 0.9375 51.4062 0.9375 51.7188 1.09375L79.5312 17.3438C79.8438 17.5 80 17.8125 80 18.125V35.9375C80 36.4062 79.6875 36.875 79.0625 36.875ZM52.1875 35H78.125V18.75L52.1875 3.59375V35Z" fill="black"/>
</g>
<g id="_270710480">
<path id="Vector_11" fill-rule="evenodd" clip-rule="evenodd" d="M51.25 13.4375H0.9375C0.3125 13.4375 0 13.125 0 12.5V5.15625C0 4.6875 0.3125 4.21875 0.9375 4.21875H51.25C51.7188 4.21875 52.1875 4.6875 52.1875 5.15625V12.5C52.1875 13.125 51.7188 13.4375 51.25 13.4375ZM1.875 11.5625H50.3125V6.09375H1.875V11.5625Z" fill="black"/>
</g>
<g id="_270710624">
<path id="Vector_12" fill-rule="evenodd" clip-rule="evenodd" d="M51.25 29.5312H6.71875C6.25 29.5312 5.78125 29.0625 5.78125 28.5938V12.5C5.78125 12.0312 6.25 11.5625 6.71875 11.5625H51.25C51.7188 11.5625 52.1875 12.0312 52.1875 12.5V28.5938C52.1875 29.0625 51.7188 29.5312 51.25 29.5312ZM7.65625 27.6562H50.3125V13.4375H7.65625V27.6562Z" fill="black"/>
</g>
<g id="Group_4">
<g id="_270710432">
<path id="Vector_13" fill-rule="evenodd" clip-rule="evenodd" d="M67.8125 71.5625H44.2188C43.75 71.5625 43.2812 71.25 43.2812 70.625V51.0938C43.2812 50.4688 43.75 50.1562 44.2188 50.1562H67.8125C68.2812 50.1562 68.75 50.4688 68.75 51.0938V70.625C68.75 71.25 68.2812 71.5625 67.8125 71.5625ZM45.1562 69.6875H66.875V52.0312H45.1562V69.6875Z" fill="black"/>
</g>
<g id="_270711224">
<path id="Vector_14" fill-rule="evenodd" clip-rule="evenodd" d="M56.0938 71.5625C55.4688 71.5625 55.1562 71.25 55.1562 70.625V51.0938C55.1562 50.4688 55.4688 50.1562 56.0938 50.1562C56.5625 50.1562 57.0312 50.4688 57.0312 51.0938V70.625C57.0312 71.25 56.5625 71.5625 56.0938 71.5625Z" fill="black"/>
</g>
<g id="_270711560">
<path id="Vector_15" fill-rule="evenodd" clip-rule="evenodd" d="M56.0938 61.875H53.2812C52.8125 61.875 52.3438 61.4062 52.3438 60.9375C52.3438 60.3125 52.8125 60 53.2812 60H56.0938C56.5625 60 57.0312 60.3125 57.0312 60.9375C57.0312 61.4062 56.5625 61.875 56.0938 61.875Z" fill="black"/>
</g>
<g id="_270711680">
<path id="Vector_16" fill-rule="evenodd" clip-rule="evenodd" d="M58.9062 61.875H56.0938C55.4688 61.875 55.1562 61.4062 55.1562 60.9375C55.1562 60.3125 55.4688 60 56.0938 60H58.9062C59.375 60 59.8438 60.3125 59.8438 60.9375C59.8438 61.4062 59.375 61.875 58.9062 61.875Z" fill="black"/>
</g>
</g>
<g id="Group_5">
<g id="_270711056">
<path id="Vector_17" fill-rule="evenodd" clip-rule="evenodd" d="M34.2187 24.2187C33.9062 24.2187 33.5937 24.0625 33.4375 23.75L30.1562 18.2812C29.8437 17.8125 30 17.1875 30.4687 17.0312C30.9375 16.7187 31.5625 16.875 31.875 17.3437L35 22.8125C35.3125 23.2812 35.1562 23.9062 34.6875 24.0625C34.5312 24.2187 34.375 24.2187 34.2187 24.2187Z" fill="black"/>
</g>
<g id="_270711488">
<path id="Vector_18" fill-rule="evenodd" clip-rule="evenodd" d="M27.0312 24.2187C26.7188 24.2187 26.4062 24.0625 26.25 23.75L22.9688 18.2812C22.8125 17.8125 22.9688 17.1875 23.4375 17.0312C23.75 16.7187 24.375 16.875 24.6875 17.3437L27.8125 22.8125C28.125 23.2812 27.9688 23.9062 27.5 24.0625C27.3438 24.2187 27.1875 24.2187 27.0312 24.2187Z" fill="black"/>
</g>
</g>
</g>
</g>
</g>
</g>
<defs>
<clipPath id="clip0_1_1049">
<rect width="80" height="80" fill="white"/>
</clipPath>
</defs>
</svg>
