<svg width="80" height="80" viewBox="0 0 80 80" fill="none" xmlns="http://www.w3.org/2000/svg">
<g clip-path="url(#clip0_1_1988)">
<path fill-rule="evenodd" clip-rule="evenodd" d="M17.8571 65.047H70.7911V7.76652H17.8571V65.047ZM71.6646 66.7938H16.9836C16.5016 66.7938 16.1104 66.4029 16.1104 65.9205V6.89287C16.1104 6.41065 16.5014 6.01996 16.9836 6.01996L71.6646 6.01959C72.1466 6.01959 72.5377 6.41083 72.5377 6.89324V65.9201C72.5377 66.4029 72.1466 66.7938 71.6646 66.7938Z" fill="#050505"/>
<path fill-rule="evenodd" clip-rule="evenodd" d="M39.0569 66.7937C38.5748 66.7937 38.1836 66.4029 38.1836 65.9205V45.6872C38.1836 45.2048 38.5747 44.8139 39.0569 44.8139H49.7588C50.2408 44.8139 50.6319 45.205 50.6319 45.6874C50.6321 46.1692 50.2408 46.5605 49.7586 46.5605L39.9303 46.5603V65.9201C39.9303 66.4029 39.5389 66.7937 39.0569 66.7937Z" fill="#050505"/>
<path fill-rule="evenodd" clip-rule="evenodd" d="M39.0569 60.105H25.0112C24.5288 60.105 24.1377 59.7143 24.1377 59.2319V52.8772C24.1377 52.395 24.5288 52.0043 25.011 52.0043L39.0569 52.0041C39.5391 52.0041 39.9302 52.3953 39.9302 52.8776C39.9304 53.36 39.5389 53.751 39.0569 53.751L25.8844 53.7508V58.3583H39.0569C39.5391 58.3583 39.9302 58.7495 39.9302 59.2319C39.9304 59.7141 39.5389 60.1052 39.0569 60.105Z" fill="#050505"/>
<path fill-rule="evenodd" clip-rule="evenodd" d="M57.1164 66.7937C56.6346 66.7937 56.2432 66.4029 56.2432 65.9205L56.2434 50.871C56.2434 50.3884 56.6344 49.9977 57.1164 49.9977L71.6647 49.9973C72.1468 49.9973 72.5378 50.3887 72.5378 50.871C72.5378 51.3532 72.1468 51.7442 71.6645 51.7442L57.9899 51.7441V65.9201C57.9899 66.4029 57.5987 66.7937 57.1164 66.7937Z" fill="#050505"/>
<path fill-rule="evenodd" clip-rule="evenodd" d="M64.3906 66.7937C63.9083 66.7937 63.5171 66.4029 63.5171 65.9205L63.5173 50.871C63.5173 50.3884 63.9083 49.9977 64.3906 49.9977C64.8728 49.9973 65.2638 50.3887 65.2638 50.871L65.264 65.9201C65.264 66.4029 64.8726 66.7937 64.3906 66.7937Z" fill="#050505"/>
<path fill-rule="evenodd" clip-rule="evenodd" d="M71.6643 21.4362H49.3818C48.8995 21.4362 48.5083 21.0453 48.5083 20.5631L48.5085 6.89287C48.5085 6.41065 48.8995 6.01978 49.3816 6.01978C49.8638 6.01959 50.255 6.41083 50.255 6.89324V19.6892H71.6643C72.1463 19.6892 72.5373 20.0807 72.5373 20.5631C72.5373 21.0451 72.1463 21.4363 71.6643 21.4362Z" fill="#050505"/>
<path fill-rule="evenodd" clip-rule="evenodd" d="M71.6643 14.6012H49.3818C48.8995 14.6012 48.5083 14.2104 48.5083 13.728C48.5085 13.2454 48.8995 12.8547 49.3816 12.8547L71.6643 12.8545C72.1463 12.8545 72.5373 13.2457 72.5373 13.728C72.5373 14.2104 72.1463 14.6012 71.6643 14.6012Z" fill="#050505"/>
<path fill-rule="evenodd" clip-rule="evenodd" d="M24.8018 27.2889H16.9836C16.5016 27.2889 16.1104 26.898 16.1104 26.4156C16.1104 25.933 16.5014 25.5423 16.9836 25.5423L24.8018 25.542C25.2839 25.542 25.6749 25.9334 25.6749 26.4156C25.6749 26.8979 25.2839 27.2891 24.8018 27.2889ZM36.6736 27.2889H30.8203C30.3383 27.2889 29.947 26.898 29.947 26.4156C29.9472 25.933 30.3383 25.5423 30.8203 25.5423L35.8001 25.542V6.89287C35.8001 6.41065 36.1912 6.01978 36.6734 6.01978C37.1554 6.01959 37.5467 6.41083 37.5467 6.89324V26.4156C37.5467 26.8979 37.1554 27.2891 36.6736 27.2889Z" fill="#050505"/>
<path fill-rule="evenodd" clip-rule="evenodd" d="M25.6748 32.0633H29.9487V21.4361H25.6748V32.0633ZM30.822 33.8101H24.8017C24.3195 33.8101 23.9282 33.4194 23.9282 32.937V20.5629C23.9282 20.0803 24.3195 19.6896 24.8015 19.6896L30.822 19.6892C31.3042 19.6892 31.6953 20.0806 31.6953 20.563L31.6955 32.9368C31.6955 33.4192 31.304 33.8103 30.822 33.8101Z" fill="#050505"/>
<path fill-rule="evenodd" clip-rule="evenodd" d="M71.6645 44.5539H60.9206C60.4384 44.5539 60.0474 44.1631 60.0474 43.6806V29.1326C60.0474 28.6505 60.4384 28.2596 60.9206 28.2596L71.6645 28.2595C72.1465 28.2595 72.5376 28.6507 72.5376 29.1329C72.5376 29.615 72.1465 30.006 71.6643 30.006L61.7941 30.0058V42.8072H71.6645C72.1465 42.8072 72.5376 43.1984 72.5376 43.6806C72.5376 44.1627 72.1465 44.5539 71.6645 44.5539Z" fill="#050505"/>
<path fill-rule="evenodd" clip-rule="evenodd" d="M42.1918 39.8299H16.9836C16.5016 39.8299 16.1104 39.4392 16.1104 38.957C16.1104 38.4746 16.5014 38.0837 16.9836 38.0837L42.1918 38.0835C42.6738 38.0835 43.065 38.4746 43.065 38.957C43.065 39.439 42.6738 39.8301 42.1918 39.8299Z" fill="#050505"/>
<path fill-rule="evenodd" clip-rule="evenodd" d="M45.5739 32.3981H54.5291V27.7903H45.5739V32.3981ZM55.4025 34.1445H44.7006C44.2186 34.1445 43.8271 33.754 43.8271 33.2716L43.8273 26.917C43.8273 26.4348 44.2184 26.0439 44.7006 26.0439H55.4025C55.8846 26.0439 56.2756 26.435 56.2756 26.9172L56.2758 33.2714C56.2758 33.7536 55.8846 34.1449 55.4025 34.1445Z" fill="#050505"/>
<path fill-rule="evenodd" clip-rule="evenodd" d="M77.683 72.8135H10.4555C9.97328 72.8135 9.58204 72.4228 9.58204 71.9404C9.58222 71.4576 9.97328 71.0671 10.4553 71.0671L76.8099 71.0668V1.74619H8.46681C5.50851 1.74619 3.19041 4.16322 3.19041 7.24849C3.19041 10.2821 5.49024 12.7502 8.3177 12.7502C8.93981 12.75 9.54937 12.6317 10.1261 12.3977C10.5738 12.2167 11.0831 12.4322 11.2651 12.8794C11.4452 13.326 11.2306 13.8356 10.7829 14.0166C9.99524 14.3351 9.16736 14.497 8.3177 14.497C4.52783 14.497 1.44385 11.2454 1.44385 7.24849C1.44385 3.18364 4.52967 1.44233e-06 8.46681 1.44233e-06L77.683 -0.000183105C78.1652 -0.000183105 78.5562 0.390874 78.5562 0.873282L78.5564 71.9404C78.5564 72.4226 78.1652 72.8137 77.683 72.8135Z" fill="#050505"/>
<path fill-rule="evenodd" clip-rule="evenodd" d="M8.15936 80C4.45696 80 1.44385 76.9614 1.44385 73.2265V7.24809C1.44385 6.76587 1.83509 6.37518 2.31713 6.37518C2.8012 6.375 3.19041 6.76624 3.19041 7.24846V73.2262C3.19041 75.9984 5.42104 78.2536 8.15936 78.2536C8.77981 78.2532 9.08542 78.1512 9.58204 77.891L9.58222 13.207C9.58222 12.7247 9.97328 12.3339 10.4553 12.3339C10.9375 12.3337 11.3288 12.7249 11.3288 13.2073V78.4105C11.3288 78.7294 11.154 79.0232 10.8757 79.1763L10.812 79.2107C9.97697 79.6689 9.37461 80.0002 8.15936 80Z" fill="#050505"/>
</g>
<defs>
<clipPath id="clip0_1_1988">
<rect width="80" height="80" fill="white"/>
</clipPath>
</defs>
</svg>
