<svg width="80" height="80" viewBox="0 0 80 80" fill="none" xmlns="http://www.w3.org/2000/svg">
<path d="M21.1906 62.3289C20.6929 62.3289 20.3018 61.9378 20.3018 61.44V31.4311C20.3018 31.1466 20.4262 30.88 20.6573 30.72L44.7284 12.8C45.0484 12.5689 45.4751 12.5689 45.7951 12.8L69.8662 30.72C70.0973 30.88 70.2218 31.1466 70.2218 31.4311V35.6266C70.2218 36.1244 69.8307 36.5155 69.3329 36.5155C68.8351 36.5155 68.444 36.1244 68.444 35.6266V31.8755L45.2618 14.6133L22.0795 31.8933V61.44C22.0795 61.9378 21.6884 62.3289 21.1906 62.3289Z" fill="#050505"/>
<path d="M64.2131 24.16C63.7153 24.16 63.3242 23.7689 63.3242 23.2711V15.1289C63.3242 14.6311 63.7153 14.24 64.2131 14.24C64.7109 14.24 65.102 14.6311 65.102 15.1289V23.2711C65.102 23.7689 64.7109 24.16 64.2131 24.16Z" fill="#050505"/>
<path d="M59.4133 20.6755C58.9155 20.6755 58.5244 20.2844 58.5244 19.7867V15.1289C58.5244 14.6311 58.9155 14.24 59.4133 14.24C59.9111 14.24 60.3022 14.6311 60.3022 15.1289V19.7867C60.3022 20.2667 59.8933 20.6755 59.4133 20.6755Z" fill="#050505"/>
<path d="M65.9376 16H57.6887C57.1909 16 56.7998 15.6089 56.7998 15.1111V12C56.7998 11.5022 57.1909 11.1111 57.6887 11.1111H65.9376C66.4354 11.1111 66.8265 11.5022 66.8265 12V15.1111C66.8265 15.6089 66.4176 16 65.9376 16ZM58.5776 14.2222H65.0487V12.8889H58.5776V14.2222Z" fill="#050505"/>
<path d="M48.142 53.3867C48.0887 53.3867 48.0176 53.3867 47.9642 53.3689C47.9109 53.3511 47.8576 53.3333 47.8042 53.3156C47.7509 53.2978 47.6976 53.2622 47.6442 53.2267C47.5909 53.1911 47.5554 53.1556 47.502 53.12C47.342 52.96 47.2354 52.7289 47.2354 52.4978C47.2354 52.2667 47.3242 52.0356 47.502 51.8756C47.5376 51.84 47.5909 51.8045 47.6442 51.7689C47.6976 51.7333 47.7509 51.7156 47.8042 51.68C47.8576 51.6622 47.9109 51.6445 47.9642 51.6267C48.0709 51.6089 48.1953 51.6089 48.3198 51.6267L48.4798 51.68C48.5331 51.6978 48.5865 51.7333 48.6398 51.7689C48.6931 51.8045 48.7287 51.84 48.782 51.8756C48.942 52.0356 49.0487 52.2667 49.0487 52.4978C49.0487 52.7289 48.9598 52.96 48.782 53.12C48.7465 53.1556 48.6931 53.1911 48.6398 53.2267C48.5865 53.2622 48.5331 53.28 48.4798 53.3156C48.4265 53.3333 48.3731 53.3511 48.3198 53.3689C48.2665 53.3867 48.2131 53.3867 48.142 53.3867Z" fill="#050505"/>
<path d="M39.5197 62.3289C39.022 62.3289 38.6309 61.9378 38.6309 61.44V43.5733C38.6309 43.0756 39.022 42.6844 39.5197 42.6844H50.9864C51.4842 42.6844 51.8753 43.0756 51.8753 43.5733V53.8667C51.8753 54.3644 51.4842 54.7556 50.9864 54.7556C50.4886 54.7556 50.0975 54.3644 50.0975 53.8667V44.4622H40.4086V61.44C40.4086 61.9378 40.0175 62.3289 39.5197 62.3289Z" fill="#050505"/>
<path d="M75.4844 32.3378H69.3333C68.8355 32.3378 68.4444 31.9466 68.4444 31.4489C68.4444 30.9511 68.8355 30.56 69.3333 30.56H72.7466L45.2622 10.6133L17.7777 30.56H21.1911C21.6888 30.56 22.0799 30.9511 22.0799 31.4489C22.0799 31.9466 21.6888 32.3378 21.1911 32.3378H15.0399C14.6488 32.3378 14.3111 32.0889 14.1866 31.7155C14.0622 31.3422 14.2044 30.9511 14.5066 30.72L44.7288 8.79998C45.0488 8.56887 45.4577 8.56887 45.7777 8.79998L76 30.72C76.32 30.9511 76.4444 31.3422 76.32 31.7155C76.1955 32.0889 75.8755 32.3378 75.4844 32.3378Z" fill="#050505"/>
<path d="M60.4618 41.1911H51.2707C50.7729 41.1911 50.3818 40.8 50.3818 40.3022V31.1111C50.3818 30.6133 50.7729 30.2222 51.2707 30.2222H60.4618C60.9596 30.2222 61.3507 30.6133 61.3507 31.1111V40.3022C61.3507 40.8 60.9596 41.1911 60.4618 41.1911ZM52.1596 39.4133H59.5729V32H52.1596V39.4133Z" fill="#050505"/>
<path d="M55.8752 41.1911C55.3774 41.1911 54.9863 40.8 54.9863 40.3022V31.1111C54.9863 30.6133 55.3774 30.2222 55.8752 30.2222C56.373 30.2222 56.7641 30.6133 56.7641 31.1111V40.3022C56.7641 40.8 56.3552 41.1911 55.8752 41.1911Z" fill="#050505"/>
<path d="M39.2353 41.1911H30.0442C29.5464 41.1911 29.1553 40.8 29.1553 40.3022V31.1111C29.1553 30.6133 29.5464 30.2222 30.0442 30.2222H39.2353C39.7331 30.2222 40.1242 30.6133 40.1242 31.1111V40.3022C40.1242 40.8 39.7331 41.1911 39.2353 41.1911ZM30.9508 39.4133H38.3642V32H30.9508V39.4133Z" fill="#050505"/>
<path d="M34.6487 41.1911C34.1509 41.1911 33.7598 40.8 33.7598 40.3022V31.1111C33.7598 30.6133 34.1509 30.2222 34.6487 30.2222C35.1464 30.2222 35.5375 30.6133 35.5375 31.1111V40.3022C35.5375 40.8 35.1464 41.1911 34.6487 41.1911Z" fill="#050505"/>
<path d="M39.2353 36.6044H30.0442C29.5464 36.6044 29.1553 36.2133 29.1553 35.7155C29.1553 35.2178 29.5464 34.8267 30.0442 34.8267H39.2353C39.7331 34.8267 40.1242 35.2178 40.1242 35.7155C40.1242 36.2133 39.7331 36.6044 39.2353 36.6044Z" fill="#050505"/>
<path d="M60.4618 36.6044H51.2707C50.7729 36.6044 50.3818 36.2133 50.3818 35.7155C50.3818 35.2178 50.7729 34.8267 51.2707 34.8267H60.4618C60.9596 34.8267 61.3507 35.2178 61.3507 35.7155C61.3507 36.2133 60.9596 36.6044 60.4618 36.6044Z" fill="#050505"/>
<path d="M45.2623 28.7467C42.5423 28.7467 40.3379 26.5422 40.3379 23.8222C40.3379 21.1022 42.5423 18.8978 45.2623 18.8978C47.9823 18.8978 50.1868 21.1022 50.1868 23.8222C50.1868 26.5244 47.9823 28.7467 45.2623 28.7467ZM45.2623 20.6755C43.5201 20.6755 42.1157 22.08 42.1157 23.8222C42.1157 25.5644 43.5201 26.9689 45.2623 26.9689C47.0046 26.9689 48.409 25.5644 48.409 23.8222C48.409 22.08 47.0046 20.6755 45.2623 20.6755Z" fill="#050505"/>
<path d="M43.5375 65.7423H18.9153C18.4175 65.7423 18.0264 65.3511 18.0264 64.8534V61.44C18.0264 60.9423 18.4175 60.5511 18.9153 60.5511H45.3153C45.813 60.5511 46.2041 60.9423 46.2041 61.44C46.2041 61.9378 45.813 62.3289 45.3153 62.3289H19.8041V63.9645H43.5375C44.0353 63.9645 44.4264 64.3556 44.4264 64.8534C44.4264 65.3511 44.0175 65.7423 43.5375 65.7423Z" fill="#050505"/>
<path d="M78.2223 71.2H48.1601C47.8045 71.2 47.4845 70.9867 47.3423 70.6489C47.2001 70.3111 47.289 69.9378 47.5378 69.6889L77.6001 39.6266C77.849 39.3778 78.2401 39.2889 78.5601 39.4311C78.8978 39.5733 79.1112 39.8933 79.1112 40.2489V70.3111C79.1112 70.7911 78.7201 71.2 78.2223 71.2ZM50.3112 69.4222H77.3334V42.3822L50.3112 69.4222Z" fill="#050505"/>
<path d="M72.7638 65.7244H61.3505C60.9949 65.7244 60.6749 65.5111 60.5327 65.1733C60.3905 64.8356 60.4794 64.4622 60.7283 64.2133L72.1416 52.8C72.3905 52.5511 72.7816 52.4622 73.1016 52.6044C73.4394 52.7467 73.6527 53.0667 73.6527 53.4222V64.8356C73.6527 65.3333 73.2438 65.7244 72.7638 65.7244ZM63.4838 63.9467H71.8572V55.5733L63.4838 63.9467Z" fill="#050505"/>
<path d="M43.1466 66.4533C42.9155 66.4533 42.6844 66.3644 42.5244 66.1867C42.2578 65.92 42.1866 65.4933 42.3644 65.1378L46.6311 56.9956C46.6666 56.9244 46.72 56.8356 46.7911 56.7822L68.1778 35.3956C69.5822 33.9911 71.8933 33.9911 73.2978 35.3956C74.7022 36.8 74.7022 39.1111 73.2978 40.5156L51.9289 61.92C51.8578 61.9911 51.7866 62.0444 51.7155 62.08L43.5733 66.3467C43.4311 66.4178 43.2889 66.4533 43.1466 66.4533ZM48.16 57.9556L45.28 63.4489L50.7733 60.5689L72.0711 39.2711C72.7822 38.56 72.7822 37.3867 72.0711 36.6578C71.36 35.9467 70.1866 35.9467 69.4578 36.6578L48.16 57.9556Z" fill="#050505"/>
<path d="M51.2889 62.1867C51.0577 62.1867 50.8266 62.0978 50.6666 61.92L46.7911 58.0445C46.4355 57.6889 46.4355 57.1378 46.7911 56.7822C47.1466 56.4267 47.6977 56.4267 48.0533 56.7822L51.9289 60.6578C52.2844 61.0133 52.2844 61.5645 51.9289 61.92C51.7511 62.0978 51.52 62.1867 51.2889 62.1867Z" fill="#050505"/>
<path d="M70.5779 42.8978C70.3468 42.8978 70.1157 42.8089 69.9557 42.6311L66.0801 38.7556C65.7246 38.4 65.7246 37.8489 66.0801 37.4934C66.4357 37.1378 66.9868 37.1378 67.3424 37.4934L71.2179 41.3689C71.5735 41.7245 71.5735 42.2756 71.2179 42.6311C71.0224 42.8089 70.809 42.8978 70.5779 42.8978Z" fill="#050505"/>
<path d="M12.7287 65.5289H1.77756C1.27978 65.5289 0.888672 65.1378 0.888672 64.64V9.88443C0.888672 9.38666 1.27978 8.99554 1.77756 8.99554H12.7287C13.2265 8.99554 13.6176 9.38666 13.6176 9.88443V64.64C13.6176 65.1378 13.2087 65.5289 12.7287 65.5289ZM2.66645 63.7511H11.8398V10.7733H2.66645V63.7511Z" fill="#050505"/>
<path d="M12.7284 15.4311H8.40842C7.91064 15.4311 7.51953 15.04 7.51953 14.5422C7.51953 14.0444 7.91064 13.6533 8.40842 13.6533H12.7284C13.2262 13.6533 13.6173 14.0444 13.6173 14.5422C13.6173 15.04 13.2084 15.4311 12.7284 15.4311Z" fill="#050505"/>
<path d="M12.7287 20.48H10.5598C10.062 20.48 9.6709 20.0889 9.6709 19.5911C9.6709 19.0933 10.062 18.7022 10.5598 18.7022H12.7109C13.2087 18.7022 13.5998 19.0933 13.5998 19.5911C13.5998 20.0889 13.2087 20.48 12.7287 20.48Z" fill="#050505"/>
<path d="M12.7284 25.5289H8.40842C7.91064 25.5289 7.51953 25.1378 7.51953 24.64C7.51953 24.1422 7.91064 23.7511 8.40842 23.7511H12.7284C13.2262 23.7511 13.6173 24.1422 13.6173 24.64C13.6173 25.1378 13.2084 25.5289 12.7284 25.5289Z" fill="#050505"/>
<path d="M12.7287 30.5778H10.5598C10.062 30.5778 9.6709 30.1867 9.6709 29.6889C9.6709 29.1911 10.062 28.8 10.5598 28.8H12.7109C13.2087 28.8 13.5998 29.1911 13.5998 29.6889C13.5998 30.1867 13.2087 30.5778 12.7287 30.5778Z" fill="#050505"/>
<path d="M12.7284 35.6267H8.40842C7.91064 35.6267 7.51953 35.2355 7.51953 34.7378C7.51953 34.24 7.91064 33.8489 8.40842 33.8489H12.7284C13.2262 33.8489 13.6173 34.24 13.6173 34.7378C13.6173 35.2355 13.2084 35.6267 12.7284 35.6267Z" fill="#050505"/>
<path d="M12.7287 40.6755H10.5598C10.062 40.6755 9.6709 40.2844 9.6709 39.7867C9.6709 39.2889 10.062 38.8978 10.5598 38.8978H12.7109C13.2087 38.8978 13.5998 39.2889 13.5998 39.7867C13.6176 40.2844 13.2087 40.6755 12.7287 40.6755Z" fill="#050505"/>
<path d="M12.7284 45.7244H8.40842C7.91064 45.7244 7.51953 45.3333 7.51953 44.8355C7.51953 44.3378 7.91064 43.9467 8.40842 43.9467H12.7284C13.2262 43.9467 13.6173 44.3378 13.6173 44.8355C13.6173 45.3333 13.2084 45.7244 12.7284 45.7244Z" fill="#050505"/>
<path d="M12.7287 50.7733H10.5598C10.062 50.7733 9.6709 50.3822 9.6709 49.8844C9.6709 49.3867 10.062 48.9955 10.5598 48.9955H12.7109C13.2087 48.9955 13.5998 49.3867 13.5998 49.8844C13.5998 50.3822 13.2087 50.7733 12.7287 50.7733Z" fill="#050505"/>
<path d="M12.7284 55.84H8.40842C7.91064 55.84 7.51953 55.4489 7.51953 54.9511C7.51953 54.4533 7.91064 54.0622 8.40842 54.0622H12.7284C13.2262 54.0622 13.6173 54.4533 13.6173 54.9511C13.6173 55.4489 13.2084 55.84 12.7284 55.84Z" fill="#050505"/>
<path d="M12.7287 60.8889H10.5598C10.062 60.8889 9.6709 60.4978 9.6709 60C9.6709 59.5022 10.062 59.1111 10.5598 59.1111H12.7109C13.2087 59.1111 13.5998 59.5022 13.5998 60C13.5998 60.4978 13.2087 60.8889 12.7287 60.8889Z" fill="#050505"/>
</svg>
