<svg width="80" height="80" viewBox="0 0 80 80" fill="none" xmlns="http://www.w3.org/2000/svg">
<path fill-rule="evenodd" clip-rule="evenodd" d="M71.5449 51.4868H8.45508C7.93761 51.4868 7.51758 51.0662 7.51758 50.5493V43.8005C7.51758 43.2831 7.93761 42.863 8.45508 42.863H71.5449C72.0623 42.863 72.4824 43.2836 72.4824 43.8005V50.5485C72.4831 51.0662 72.0625 51.4868 71.5449 51.4868ZM9.39258 49.611H70.6064V44.7388H9.39258V49.611Z" fill="#050505"/>
<path fill-rule="evenodd" clip-rule="evenodd" d="M71.5452 79.9986H50.4473C49.9298 79.9986 49.5098 79.5782 49.5098 79.0613V50.5486C49.5098 50.0311 49.9303 49.6111 50.4473 49.6111H71.5452C72.0627 49.6111 72.4827 50.0317 72.4827 50.5486V79.0613C72.4834 79.5789 72.0628 79.9986 71.5452 79.9986ZM51.3848 78.1238H70.6071V51.4868H51.3848V78.1238Z" fill="#050505"/>
<path fill-rule="evenodd" clip-rule="evenodd" d="M29.5549 79.9986H8.45606C7.93858 79.9986 7.51855 79.5782 7.51855 79.0613V50.5486C7.51855 50.0311 7.93859 49.6111 8.45606 49.6111H29.5549C30.0723 49.6111 30.4924 50.0317 30.4924 50.5486V79.0613C30.4924 79.5789 30.0723 79.9986 29.5549 79.9986ZM9.39356 78.1238H28.6174V51.4868H9.39356V78.1238Z" fill="#050505"/>
<path fill-rule="evenodd" clip-rule="evenodd" d="M50.4476 58.3718H29.5547C29.0372 58.3718 28.6172 57.9512 28.6172 57.4343V50.5495C28.6172 49.3153 30.4922 49.3158 30.4922 50.5495V56.4968H49.5101V50.5495C49.5101 49.3153 51.3851 49.3158 51.3851 50.5495V57.4343C51.3851 57.9512 50.965 58.3718 50.4476 58.3718Z" fill="#050505"/>
<path fill-rule="evenodd" clip-rule="evenodd" d="M24.8173 69.6719C23.0037 69.6719 21.0547 70.0458 21.0547 68.7344C21.0547 67.5088 22.6359 67.7969 23.8797 67.7969V61.8146C22.6361 61.8148 21.0547 62.1029 21.0547 60.8773C21.0547 59.5661 23.0037 59.9398 24.8173 59.9398C25.3347 59.9398 25.7546 60.3603 25.7546 60.8773V68.7351C25.7546 69.2522 25.3347 69.6719 24.8173 69.6719Z" fill="#050505"/>
<path fill-rule="evenodd" clip-rule="evenodd" d="M58.0083 69.672C56.1951 69.672 54.2461 70.0459 54.2461 68.7345V60.8766C54.2461 59.5654 56.1951 59.9391 58.0083 59.9391C59.2425 59.9391 59.242 61.8141 58.0083 61.8141H56.1218V67.7966C57.365 67.7962 58.9458 67.5081 58.9458 68.7337C58.9458 69.2508 58.5259 69.672 58.0083 69.672Z" fill="#050505"/>
<path fill-rule="evenodd" clip-rule="evenodd" d="M71.5452 75.1446H50.4473C49.9298 75.1446 49.5098 74.7242 49.5098 74.2071V55.4028C49.5098 54.8854 49.9303 54.4653 50.4473 54.4653H71.5452C72.0627 54.4653 72.4827 54.8859 72.4827 55.4028V74.2071C72.4834 74.7246 72.0628 75.1446 71.5452 75.1446ZM51.3848 73.2698H70.6071V56.3408H51.3848V73.2698Z" fill="#050505"/>
<path fill-rule="evenodd" clip-rule="evenodd" d="M29.5549 75.1446H8.45606C7.93858 75.1446 7.51855 74.7242 7.51855 74.2071V55.4028C7.51855 54.8854 7.93859 54.4653 8.45606 54.4653H29.5549C30.0723 54.4653 30.4924 54.8859 30.4924 55.4028V74.2071C30.4924 74.7246 30.0723 75.1446 29.5549 75.1446ZM9.39356 73.2698H28.6174V56.3408H9.39356V73.2698Z" fill="#050505"/>
<path fill-rule="evenodd" clip-rule="evenodd" d="M42.6299 55.5686C36.0482 55.5686 36.4339 56.1033 36.4339 53.3507C36.4339 52.2818 38.3089 51.7776 38.3089 53.6932H41.6924C41.6924 51.7773 43.5674 52.2826 43.5674 53.3507C43.5674 54.2126 43.7863 55.5686 42.6299 55.5686Z" fill="#050505"/>
<path fill-rule="evenodd" clip-rule="evenodd" d="M64.1012 44.7381H15.8994C15.3819 44.7381 14.9619 44.3177 14.9619 43.8006V8.1756C14.9619 7.65813 15.3819 7.2381 15.8994 7.2381H64.1012C64.6186 7.2381 65.0387 7.65813 65.0387 8.1756V43.8009C65.0387 44.3184 64.6181 44.7381 64.1012 44.7381ZM16.8369 42.8627H63.163V9.11311H16.8369V42.8627Z" fill="#050505"/>
<path fill-rule="evenodd" clip-rule="evenodd" d="M59.8647 44.7381H20.1367C19.6192 44.7381 19.1992 44.3177 19.1992 43.8006V8.1756C19.1992 7.65813 19.6192 7.2381 20.1367 7.2381H59.864C60.3815 7.2381 60.8013 7.65813 60.8013 8.1756V43.8009C60.8021 44.3184 60.3822 44.7381 59.8647 44.7381ZM21.0742 42.8627H58.9265V9.11311H21.0742V42.8627Z" fill="#050505"/>
<path fill-rule="evenodd" clip-rule="evenodd" d="M67.3658 9.11312H12.6357C12.1183 9.11312 11.6982 8.69309 11.6982 8.17561V0.937992C11.6982 0.420518 12.1183 0.000671387 12.6357 0.000671387H67.3658C67.8833 0.000671387 68.3033 0.420518 68.3033 0.937992V8.17561C68.304 8.69309 67.8833 9.11312 67.3658 9.11312ZM13.5732 7.23811H66.4283V1.8755H13.5732V7.23811Z" fill="#050505"/>
<path fill-rule="evenodd" clip-rule="evenodd" d="M32.1718 32.0835C31.3461 32.0835 30.9157 31.0762 31.5092 30.4832L47.1672 14.8253C48.0403 13.952 49.3666 15.2782 48.4933 16.1507L32.8345 31.8087C32.6516 31.9917 32.4119 32.0835 32.1718 32.0835Z" fill="#050505"/>
<path fill-rule="evenodd" clip-rule="evenodd" d="M38.92 33.073C38.0941 33.073 37.6638 32.0655 38.2573 31.4726L48.1555 21.5736C49.0288 20.7003 50.3551 22.0267 49.4818 22.899L39.5825 32.7984C39.3998 32.9811 39.1601 33.073 38.92 33.073Z" fill="#050505"/>
<path fill-rule="evenodd" clip-rule="evenodd" d="M31.1817 25.3342C30.3559 25.3342 29.9255 24.3268 30.519 23.7338L40.4172 13.8348C41.2905 12.9616 42.6166 14.2879 41.7434 15.1604L31.8446 25.0596C31.661 25.2432 31.4212 25.3342 31.1817 25.3342Z" fill="#050505"/>
<path fill-rule="evenodd" clip-rule="evenodd" d="M76.8155 79.9995H3.18532C1.95125 79.9995 1.95125 78.1246 3.18532 78.1246H76.8155C78.0493 78.1246 78.0497 79.9995 76.8155 79.9995Z" fill="#050505"/>
<path fill-rule="evenodd" clip-rule="evenodd" d="M50.4476 65.2554H29.5547C29.0372 65.2554 28.6172 64.8348 28.6172 64.3179V57.4339C28.6172 56.1997 30.4922 56.2002 30.4922 57.4339V63.3804H49.5101V57.4339C49.5101 56.1997 51.3851 56.2002 51.3851 57.4339V64.3179C51.3851 64.8348 50.965 65.2554 50.4476 65.2554Z" fill="#050505"/>
<path fill-rule="evenodd" clip-rule="evenodd" d="M42.63 62.4532C36.0479 62.4532 36.4339 62.9878 36.4339 60.2345C36.4339 59.1658 38.3089 58.6609 38.3089 60.5774L41.6925 60.5778C41.6925 58.6609 43.5675 59.1668 43.5675 60.2347C43.5675 61.0971 43.7863 62.4532 42.63 62.4532Z" fill="#050505"/>
<path fill-rule="evenodd" clip-rule="evenodd" d="M59.8647 39.396H20.1366C18.9024 39.396 18.9024 37.521 20.1366 37.521H59.8639C61.0978 37.521 61.098 39.396 59.8647 39.396Z" fill="#050505"/>
</svg>
