<svg width="80" height="80" viewBox="0 0 80 80" fill="none" xmlns="http://www.w3.org/2000/svg">
<g clip-path="url(#clip0_1_1138)">
<path d="M79.0839 0.458008H32.3053C31.8015 0.458008 31.3893 0.8702 31.3893 1.37399V9.08385V35.8472H16.8092V21.1298H24.1069C24.6106 21.1298 25.0228 20.7328 25.0382 20.229C25.0382 20.1832 25.0382 20.1374 25.023 20.0764L23.1909 7.45044C23.1145 7.00767 22.7329 6.67186 22.2749 6.67186H9.51151C9.05352 6.67186 8.67178 7.00767 8.59553 7.45044L6.76344 20.0764C6.68706 20.5802 7.03823 21.0382 7.5268 21.1146C7.5726 21.1146 7.6184 21.1298 7.67942 21.1298H14.9771V35.8473H8.85497C7.16027 35.8473 5.58775 36.5191 4.5496 37.6794C3.69464 38.6108 3.28244 39.8627 3.41984 41.1145L4.62597 52C1.86254 52.9619 0 55.5726 0 58.5038V60.7175C0 61.4503 0.274795 62.1527 0.778585 62.687C0.274795 63.2214 0 63.9236 0 64.6565V70.8702C0 72.458 1.29773 73.7557 2.88547 73.7557H3.58781V78.4275C3.58781 78.9313 4.00001 79.3435 4.5038 79.3435H8.48858C8.88555 79.3435 9.25194 79.0839 9.37412 78.7023L10.9161 73.7557H14.9771V77.5115H12.0763V79.3436H20.0611V77.5115H16.8092V73.7557H31.3893V78.6259C31.3893 79.1297 31.8015 79.5419 32.3053 79.5419H79.0839C79.5877 79.5419 79.9999 79.1297 79.9999 78.6259V1.37412C80 0.8702 79.5878 0.458008 79.0839 0.458008ZM10.3053 8.50382H21.4808L23.0533 19.2977H8.7328L10.3053 8.50382ZM50.8702 64.168C50.7786 63.603 50.519 63.0992 50.1221 62.687C50.6258 62.1527 50.916 61.4505 50.916 60.7175V58.5038C50.916 57.6795 50.7634 56.8703 50.4732 56.1069H60.5038V54.2748H49.9999V55.084C49.1297 53.5725 47.7098 52.4275 46.0457 51.9084L46.1067 51.3892H78.1678V64.1678H50.8702V64.168ZM78.1679 9.99997V49.5573H56.6107V9.99997H78.1679ZM78.1679 2.2901V8.168H33.2214V2.2901H78.1679ZM33.2214 9.99997H54.7786V49.5573H46.3054L47.2367 41.1145C47.3741 39.8626 46.9619 38.6106 46.107 37.6794C45.0688 36.5191 43.4963 35.8473 41.8016 35.8473H33.2214V9.99997ZM6.42749 51.603L5.23671 40.9159C5.16034 40.1831 5.41991 39.4502 5.9237 38.9006C6.61069 38.1221 7.67942 37.6793 8.85497 37.6793H41.8016C42.9771 37.6793 44.0459 38.1221 44.7329 38.9006C45.2366 39.4502 45.4962 40.1831 45.4198 40.9159L44.2291 51.603H6.42749ZM1.8321 58.5038C1.8321 55.71 4.10696 53.4351 6.90083 53.4351H44.0153C46.8092 53.4351 49.084 55.71 49.084 58.5038V60.7175C49.084 61.2977 48.6107 61.7709 48.0307 61.7709H48.0154H2.88547C2.30531 61.7709 1.8321 61.2976 1.8321 60.7175V58.5038ZM1.8321 70.8702V64.6565C1.8321 64.0764 2.30544 63.6032 2.88547 63.6032H48.0152C48.5953 63.5879 49.0686 64.0611 49.0839 64.6413V64.6565V70.8702C49.0839 71.4504 48.6106 71.9236 48.0305 71.9236H48.0153H2.88547C2.30531 71.9236 1.8321 71.4504 1.8321 70.8702ZM46.1068 77.5114H43.7251L42.5496 73.7556H46.1068V77.5114ZM7.81682 77.5114H5.41991V73.7556H8.99237L7.81682 77.5114ZM33.2214 73.7557H40.626L41.8626 77.7099H33.2214V73.7557ZM78.1679 77.7099H47.9389V73.7557H48.0153C49.2672 73.7557 50.3818 72.9466 50.7786 71.7558H60.5038V69.9237H50.916V66.0001H78.1679V77.7099Z" fill="#050505"/>
<path d="M60.916 24.3665H62.7481V31.0229H60.916V24.3665Z" fill="#050505"/>
<path d="M49.084 24.3665H50.9161V31.0229H49.084V24.3665Z" fill="#050505"/>
</g>
<defs>
<clipPath id="clip0_1_1138">
<rect width="80" height="80" fill="white"/>
</clipPath>
</defs>
</svg>
