<svg width="80" height="80" viewBox="0 0 80 80" fill="none" xmlns="http://www.w3.org/2000/svg">
<g id="project 1" clip-path="url(#clip0_1_1097)">
<g id="Layer_x0020_1">
<g id="_224859792">
<path id="_224862528" fill-rule="evenodd" clip-rule="evenodd" d="M1.7473 22.4551V71.3723C1.7473 74.8711 4.37046 77.7676 7.75451 78.1971V23.5268H4.75137C3.6116 23.5268 2.5654 23.1247 1.7473 22.4551ZM8.62816 80.0001C3.87034 80.0001 0 76.1301 0 71.3723L0.000184548 18.7762C0.000184548 18.2941 0.391241 17.9031 0.873465 17.9031C1.35587 17.9031 1.74675 18.2941 1.74675 18.7764C1.7473 20.4338 3.09302 21.7821 4.75063 21.7821L8.62816 21.7819C9.1102 21.7819 9.50126 22.1713 9.50126 22.6535L9.50163 79.1266C9.50163 79.6089 9.11002 80.0001 8.62816 80.0001Z" fill="black"/>
<path id="_224862072" fill-rule="evenodd" clip-rule="evenodd" d="M75.2498 72.0219H8.62804C8.14564 72.0219 7.75439 71.6306 7.75439 71.1484C7.75439 70.6664 8.14545 70.2751 8.62768 70.2751H75.2498C76.9054 70.2751 78.2535 68.927 78.2535 67.2713L78.2537 11.0237C78.2537 10.5398 78.6447 10.1504 79.1268 10.1504C79.6097 10.1504 80.0002 10.5398 80.0002 11.0237V67.2713C80.0002 69.8913 77.8696 72.0219 75.2498 72.0219Z" fill="black"/>
<path id="_224862288" fill-rule="evenodd" clip-rule="evenodd" d="M72.2463 14.0276H75.2501C76.9057 14.0276 78.2538 12.6795 78.2538 11.0237C78.254 9.36628 76.9057 8.01982 75.25 8.01982H72.2463V14.0276ZM75.2501 15.7741H71.3735C70.8911 15.7741 70.4995 15.3831 70.4995 14.9011L70.4999 7.14654C70.4999 6.66265 70.8907 6.27326 71.3728 6.27326L75.2501 6.27307C77.8702 6.27307 80.0006 8.40386 80.0006 11.0237C80.0006 13.6419 77.87 15.7741 75.2501 15.7741Z" fill="black"/>
<path id="_224861928" fill-rule="evenodd" clip-rule="evenodd" d="M55.8442 15.7741H32.0737C31.5896 15.7741 31.1998 15.3831 31.1998 14.9011C31.2 14.417 31.589 14.0276 32.0729 14.0276H55.8442C56.3264 14.0276 56.7171 14.417 56.7171 14.9011C56.7176 15.3831 56.326 15.7741 55.8442 15.7741ZM71.3733 15.7741H64.9354C64.4541 15.7741 64.0621 15.3831 64.0621 14.9011C64.0626 14.417 64.4533 14.0276 64.9354 14.0276H71.3733C71.8555 14.0276 72.2458 14.417 72.2458 14.9011C72.246 15.3831 71.8548 15.7741 71.3733 15.7741ZM8.62816 23.5268H4.75137C2.13134 23.5268 0 21.3962 0 18.7764C0.000184548 16.1582 2.1306 14.0276 4.75063 14.0276H22.8177C23.3016 14.0276 23.691 14.417 23.691 14.9011C23.6913 15.3831 23.3016 15.7741 22.8175 15.7741H4.75137C3.09339 15.7741 1.74674 17.1206 1.74674 18.7764C1.7473 20.4338 3.09302 21.7821 4.75063 21.7821L8.62816 21.7819C9.1102 21.7819 9.50126 22.1713 9.50126 22.6535C9.50163 23.1374 9.11002 23.5268 8.62816 23.5268Z" fill="black"/>
<path id="_224862432" fill-rule="evenodd" clip-rule="evenodd" d="M55.8441 23.5269H38.2813C37.799 23.5269 37.4076 23.1375 37.4076 22.6536C37.4076 22.1714 37.7987 21.7822 38.2809 21.7822L55.8441 21.782C56.3263 21.782 56.717 22.1714 56.717 22.6536C56.7176 23.1375 56.326 23.5269 55.8441 23.5269ZM71.3733 64.2675H16.3824C15.8984 64.2675 15.5088 63.8764 15.5088 63.3942L15.5095 22.6536C15.5095 22.1714 15.8982 21.7822 16.3823 21.7822L22.8176 21.782C23.3015 21.782 23.6909 22.1714 23.6909 22.6536C23.6913 23.1375 23.3015 23.5269 22.8174 23.5269H17.2559V62.5209H70.4996V23.5269H64.9353C64.454 23.5269 64.062 23.1375 64.062 22.6536C64.0626 22.1714 64.4533 21.7822 64.9353 21.7822L71.3733 21.782C71.8555 21.782 72.2458 22.1714 72.2458 22.6536L72.246 63.3942C72.246 63.8764 71.8547 64.2675 71.3733 64.2675Z" fill="black"/>
<path id="_224861904" fill-rule="evenodd" clip-rule="evenodd" d="M29.5062 64.2674C29.0221 64.2674 28.6325 63.8764 28.6325 63.3942V49.6793H23.6915V63.3942C23.6915 63.8764 23.3017 64.2674 22.8176 64.2674C22.3356 64.2674 21.9443 63.8764 21.9443 63.3942L21.9451 48.806C21.9451 48.3238 22.3356 47.9327 22.8176 47.9327H29.5062C29.9884 47.9327 30.3793 48.3238 30.3793 48.806L30.3796 63.3942C30.3796 63.8764 29.988 64.2674 29.5062 64.2674Z" fill="black"/>
<path id="_224862480" fill-rule="evenodd" clip-rule="evenodd" d="M46.0177 64.2674C45.5355 64.2674 45.1439 63.8763 45.1439 63.3941L45.1442 54.73H40.2046V63.3941C40.2046 63.8763 39.813 64.2674 39.3306 64.2674C38.8488 64.2674 38.4575 63.8763 38.4575 63.3941V53.8567C38.4575 53.3728 38.8486 52.9834 39.3306 52.9834H46.0177C46.4999 52.9834 46.8906 53.3728 46.8906 53.8567L46.8914 63.3941C46.8914 63.8763 46.4994 64.2674 46.0177 64.2674Z" fill="black"/>
<path id="_224862384" fill-rule="evenodd" clip-rule="evenodd" d="M34.4184 64.2674C33.9363 64.2674 33.5449 63.8764 33.5449 63.3941V44.2938C33.5449 43.8116 33.9362 43.4205 34.4182 43.4205C34.9008 43.4205 35.2917 43.8116 35.2917 44.2938L35.292 63.3941C35.292 63.8764 34.9004 64.2674 34.4184 64.2674Z" fill="black"/>
<path id="_224861952" fill-rule="evenodd" clip-rule="evenodd" d="M50.3153 50.7708H38.853C38.3708 50.7708 37.979 50.3816 37.979 49.8994C37.9794 49.4155 38.3702 49.0261 38.8523 49.0261H50.3153C50.7992 49.0261 51.188 49.4155 51.188 49.8994C51.188 50.3816 50.7986 50.7708 50.3153 50.7708Z" fill="black"/>
<path id="_224861064" fill-rule="evenodd" clip-rule="evenodd" d="M43.2878 50.7708C42.8063 50.7708 42.4146 50.3816 42.4146 49.8994L42.4151 45.4636C42.4151 44.9814 42.8058 44.5903 43.2878 44.5903C43.7701 44.5903 44.1613 44.9816 44.1613 45.4636L44.1615 49.8994C44.1615 50.3816 43.7701 50.7708 43.2878 50.7708Z" fill="black"/>
<path id="_224861784" fill-rule="evenodd" clip-rule="evenodd" d="M39.4294 45.1671H25.2454C24.7615 45.1671 24.3716 44.776 24.3716 44.2938C24.372 43.8116 24.761 43.4205 25.2449 43.4205H39.4294C39.9116 43.4205 40.3025 43.8116 40.3025 44.2938C40.303 44.7759 39.9112 45.1671 39.4294 45.1671Z" fill="black"/>
<path id="_224861568" fill-rule="evenodd" clip-rule="evenodd" d="M55.8424 47.5142C55.6492 47.5142 55.4543 47.4505 55.2925 47.3195C54.918 47.0158 54.8612 46.4664 55.1651 46.0914L56.6808 44.2228C56.8462 44.0191 57.0955 43.8989 57.3594 43.8989C57.6215 43.8989 57.8706 44.0191 58.038 44.2228L58.8734 45.2544L59.7118 44.2228C59.8779 44.0191 60.1267 43.8989 60.3888 43.8989C60.6523 43.8989 60.9018 44.0191 61.0673 44.2228L61.9043 45.2544L62.7419 44.2228C62.9073 44.0191 63.156 43.8989 63.4198 43.8989C63.6842 43.8989 63.9328 44.0191 64.0985 44.2228L65.614 46.0914C65.9187 46.4664 65.8597 47.0158 65.4849 47.3195C65.1106 47.6235 64.5606 47.567 64.2567 47.1922L63.4198 46.1587L62.583 47.1922C62.4177 47.3959 62.168 47.5142 61.9043 47.5142C61.6407 47.5142 61.3929 47.3959 61.2257 47.1922L60.3889 46.1587L59.5522 47.1922C59.3867 47.3959 59.1368 47.5142 58.8731 47.5142C58.611 47.5142 58.3619 47.3959 58.1961 47.1922L57.3596 46.1587L56.5229 47.1922C56.3499 47.405 56.0967 47.5142 55.8424 47.5142Z" fill="black"/>
<path id="_224861760" fill-rule="evenodd" clip-rule="evenodd" d="M64.9352 12.2392H55.844C55.3618 12.2392 54.9702 11.8479 54.9702 11.3657C54.9704 10.8837 55.3616 10.4926 55.8437 10.4926L64.9352 10.4924C65.4175 10.4924 65.8087 10.8837 65.8087 11.3657C65.8089 11.8479 65.4175 12.2392 64.9352 12.2392Z" fill="black"/>
<path id="_224861592" fill-rule="evenodd" clip-rule="evenodd" d="M56.7175 46.448L60.3889 54.3517L64.0625 46.448V3.67318C64.0625 2.61074 63.1977 1.7465 62.1334 1.7465H58.6442C57.5814 1.7465 56.717 2.61074 56.717 3.67336L56.7175 46.448ZM60.3889 57.2954C60.0506 57.2954 59.7408 57.099 59.597 56.7914L55.0523 47.0102C54.9983 46.8937 54.9702 46.7682 54.9702 46.6409L54.9704 3.67318C54.9704 1.64648 56.6188 -0.000244141 58.6438 -0.000244141H62.1336C64.1607 -0.000244141 65.8087 1.64648 65.8087 3.67336L65.8089 46.6409C65.8089 46.7682 65.7814 46.8937 65.7268 47.0102L61.1823 56.7914C61.0381 57.099 60.7288 57.2954 60.3889 57.2954Z" fill="black"/>
<path id="_224861136" fill-rule="evenodd" clip-rule="evenodd" d="M62.3433 53.0907C62.1573 53.0907 61.9698 53.0325 61.8114 52.9106C61.3803 52.5776 60.887 52.4031 60.3887 52.4031C59.8903 52.4031 59.3988 52.5776 58.9677 52.9106C58.5861 53.2036 58.0361 53.1326 57.7432 52.7506C57.4487 52.3685 57.5194 51.819 57.9032 51.5261C58.6425 50.9566 59.5025 50.6565 60.3887 50.6565C61.2771 50.6563 62.137 50.9566 62.8757 51.5261C63.2586 51.819 63.3306 52.3685 63.0359 52.7506C62.8632 52.9742 62.6046 53.0907 62.3433 53.0907Z" fill="black"/>
<path id="_224861424" fill-rule="evenodd" clip-rule="evenodd" d="M60.3888 45.6456C59.9066 45.6456 59.5151 45.2562 59.5151 44.7723V11.3656C59.5151 10.8836 59.9064 10.4926 60.3886 10.4926C60.8727 10.4924 61.2617 10.8836 61.2617 11.3656L61.2624 44.7723C61.2624 45.2562 60.8725 45.6456 60.3888 45.6456Z" fill="black"/>
<path id="_224861088" fill-rule="evenodd" clip-rule="evenodd" d="M64.9352 12.2392H55.844C55.3618 12.2392 54.9702 11.8479 54.9702 11.3657C54.9704 10.8837 55.3616 10.4926 55.8437 10.4926L64.9352 10.4924C65.4175 10.4924 65.8087 10.8837 65.8087 11.3657C65.8089 11.8479 65.4175 12.2392 64.9352 12.2392Z" fill="black"/>
<path id="_224861184" fill-rule="evenodd" clip-rule="evenodd" d="M23.6915 38.9065H50.177L23.6915 5.83107V38.9065ZM51.9946 40.653H22.8178C22.3356 40.653 21.9443 40.262 21.9443 39.7797L21.9451 3.34392C21.9451 2.97279 22.1791 2.64171 22.5284 2.51973C22.8802 2.39608 23.2688 2.50884 23.4999 2.79802L52.6765 39.2339C52.8862 39.4959 52.9273 39.8543 52.7819 40.1583C52.6365 40.4602 52.3307 40.653 51.9946 40.653Z" fill="black"/>
<path id="_224861112" fill-rule="evenodd" clip-rule="evenodd" d="M28.933 33.6665H39.2669L28.933 20.7596V33.6665ZM41.0847 35.4132H28.0601C27.5754 35.4132 27.186 35.022 27.186 34.5399L27.1864 18.2706C27.1864 17.9011 27.4189 17.57 27.7699 17.4464C28.1198 17.3244 28.5085 17.4355 28.7397 17.7247L41.7675 33.994C41.9762 34.2561 42.018 34.6145 41.8723 34.9183C41.7273 35.2204 41.4211 35.4132 41.0847 35.4132Z" fill="black"/>
<path id="_224861448" fill-rule="evenodd" clip-rule="evenodd" d="M26.3024 40.653C26.2419 40.653 26.1818 40.6477 26.1218 40.635C25.649 40.5349 25.3467 40.0726 25.445 39.5997C25.5892 38.9155 25.3793 38.2096 24.8846 37.7147C24.3881 37.2181 23.6837 37.0088 22.9977 37.1525C22.5255 37.2507 22.0626 36.9488 21.9643 36.4775C21.8648 36.0045 22.1664 35.5424 22.6394 35.4423C23.9042 35.1784 25.2048 35.566 26.1181 36.4793C27.0334 37.3926 27.4191 38.6935 27.1552 39.958C27.068 40.3711 26.7059 40.653 26.3024 40.653Z" fill="black"/>
<path id="_224860560" fill-rule="evenodd" clip-rule="evenodd" d="M29.3512 40.653C28.8688 40.653 28.4775 40.262 28.4775 39.7798L28.4783 37.6493C28.4783 37.1671 28.8686 36.7759 29.3508 36.7759C29.8332 36.7759 30.2241 37.1671 30.2241 37.6493L30.2247 39.7798C30.2247 40.262 29.833 40.653 29.3512 40.653Z" fill="black"/>
<path id="_224860800" fill-rule="evenodd" clip-rule="evenodd" d="M32.7288 40.653C32.2464 40.653 31.855 40.262 31.855 39.7798L31.8552 37.6493C31.8552 37.1671 32.246 36.7759 32.7283 36.7759C33.211 36.7759 33.6015 37.1671 33.6015 37.6493V39.7798C33.6015 40.262 33.2105 40.653 32.7288 40.653Z" fill="black"/>
<path id="_224860464" fill-rule="evenodd" clip-rule="evenodd" d="M36.1069 40.653C35.6228 40.653 35.2334 40.262 35.2334 39.7798L35.234 37.6493C35.234 37.1671 35.6226 36.7759 36.1069 36.7759C36.5891 36.7759 36.9801 37.1671 36.9801 37.6493L36.9803 39.7798C36.9803 40.262 36.5889 40.653 36.1069 40.653Z" fill="black"/>
<path id="_224860680" fill-rule="evenodd" clip-rule="evenodd" d="M39.4842 40.653C39.002 40.653 38.6104 40.262 38.6104 39.7798L38.6105 37.6493C38.6105 37.1671 39.0014 36.7759 39.4836 36.7759C39.9664 36.7759 40.3571 37.1671 40.3571 37.6493V39.7798C40.3571 40.262 39.9659 40.653 39.4842 40.653Z" fill="black"/>
<path id="_224860344" fill-rule="evenodd" clip-rule="evenodd" d="M42.8603 40.653C42.3781 40.653 41.9868 40.262 41.9868 39.7798L41.9876 37.6493C41.9876 37.1671 42.3779 36.7759 42.8601 36.7759C43.3427 36.7759 43.7336 37.1671 43.7336 37.6493L43.7339 39.7798C43.7339 40.262 43.3423 40.653 42.8603 40.653Z" fill="black"/>
<path id="_224860992" fill-rule="evenodd" clip-rule="evenodd" d="M46.2394 40.653C45.7571 40.653 45.3657 40.262 45.3657 39.7798L45.3659 37.6493C45.3659 37.1671 45.757 36.7759 46.239 36.7759C46.7218 36.7759 47.1123 37.1671 47.1123 37.6493L47.113 39.7798C47.113 40.262 46.7212 40.653 46.2394 40.653Z" fill="black"/>
<path id="_224860416" fill-rule="evenodd" clip-rule="evenodd" d="M24.9482 17.2334H22.8178C22.3356 17.2334 21.9443 16.8423 21.9443 16.3601C21.9451 15.8762 22.3356 15.4868 22.8176 15.4868H24.9482C25.4304 15.4868 25.8215 15.8762 25.8215 16.3601C25.8219 16.8423 25.4304 17.2334 24.9482 17.2334Z" fill="black"/>
<path id="_224860848" fill-rule="evenodd" clip-rule="evenodd" d="M24.9482 20.6102H22.8178C22.3356 20.6102 21.9443 20.2192 21.9443 19.7369C21.9451 19.2549 22.3356 18.8636 22.8176 18.8636H24.9482C25.4304 18.8636 25.8215 19.2549 25.8215 19.7369C25.8219 20.2192 25.4304 20.6102 24.9482 20.6102Z" fill="black"/>
<path id="_224860896" fill-rule="evenodd" clip-rule="evenodd" d="M24.9482 23.9872H22.8178C22.3356 23.9872 21.9443 23.596 21.9443 23.1138C21.9451 22.6317 22.3356 22.2405 22.8176 22.2405H24.9482C25.4304 22.2405 25.8215 22.6317 25.8215 23.1138C25.8219 23.596 25.4304 23.9872 24.9482 23.9872Z" fill="black"/>
<path id="_224860752" fill-rule="evenodd" clip-rule="evenodd" d="M24.9482 27.3658H22.8178C22.3356 27.3658 21.9443 26.9746 21.9443 26.4925C21.9451 26.0103 22.3356 25.6193 22.8176 25.6193H24.9482C25.4304 25.6193 25.8215 26.0103 25.8215 26.4925C25.8219 26.9746 25.4304 27.3658 24.9482 27.3658Z" fill="black"/>
<path id="_224859912" fill-rule="evenodd" clip-rule="evenodd" d="M24.9482 30.7427H22.8178C22.3356 30.7427 21.9443 30.3516 21.9443 29.8694C21.9451 29.3872 22.3356 28.9961 22.8176 28.9961H24.9482C25.4304 28.9961 25.8215 29.3872 25.8215 29.8694C25.8219 30.3516 25.4304 30.7427 24.9482 30.7427Z" fill="black"/>
<path id="_224859600" fill-rule="evenodd" clip-rule="evenodd" d="M24.9482 34.1195H22.8178C22.3356 34.1195 21.9443 33.7284 21.9443 33.2462C21.9451 32.7642 22.3356 32.3729 22.8176 32.3729H24.9482C25.4304 32.3729 25.8215 32.7642 25.8215 33.2462C25.8219 33.7284 25.4304 34.1195 24.9482 34.1195Z" fill="black"/>
<path id="_224859840" fill-rule="evenodd" clip-rule="evenodd" d="M24.9482 13.8549H22.8178C22.3356 13.8549 21.9443 13.4637 21.9443 12.9814C21.9451 12.4994 22.3356 12.1082 22.8176 12.1082H24.9482C25.4304 12.1082 25.8215 12.4994 25.8215 12.9814C25.8219 13.4637 25.4304 13.8549 24.9482 13.8549Z" fill="black"/>
<path id="_224859888" fill-rule="evenodd" clip-rule="evenodd" d="M50.315 55.7472C49.8328 55.7472 49.4429 55.356 49.4429 54.8738L49.4432 44.9233C49.4432 44.4411 49.8323 44.05 50.3145 44.05C50.7989 44.05 51.1878 44.4411 51.1878 44.9233V54.8738C51.1878 55.356 50.7984 55.7472 50.315 55.7472Z" fill="black"/>
</g>
</g>
</g>
<defs>
<clipPath id="clip0_1_1097">
<rect width="80" height="80" fill="white"/>
</clipPath>
</defs>
</svg>
