<svg width="80" height="80" viewBox="0 0 80 80" fill="none" xmlns="http://www.w3.org/2000/svg">
<g id="tool-box 1">
<g id="Group">
<g id="Group_2">
<path id="Vector" d="M77.3469 79.3863H2.65308C2.16994 79.3863 1.77783 78.9951 1.77783 78.5111V46.9504C1.77783 46.4664 2.16994 46.0752 2.65308 46.0752H77.3469C77.8309 46.0752 78.2222 46.4664 78.2222 46.9504V78.5111C78.2222 78.9951 77.8309 79.3863 77.3469 79.3863ZM3.52833 77.6358H76.4717V47.8257H3.52833V77.6358Z" fill="#050505"/>
<path id="Vector_2" d="M22.3874 61.5085H13.5999C13.1167 61.5085 12.7246 61.1172 12.7246 60.6332V46.9504C12.7246 46.4664 13.1167 46.0752 13.5999 46.0752H22.3874C22.8705 46.0752 23.2626 46.4664 23.2626 46.9504V60.6332C23.2626 61.1172 22.8714 61.5085 22.3874 61.5085ZM14.4751 59.758H21.5121V47.8257H14.4751V59.758Z" fill="#050505"/>
<path id="Vector_3" d="M66.4001 61.5085H57.6126C57.1285 61.5085 56.7373 61.1172 56.7373 60.6332V46.9504C56.7373 46.4664 57.1285 46.0752 57.6126 46.0752H66.4001C66.8841 46.0752 67.2753 46.4664 67.2753 46.9504V60.6332C67.2753 61.1172 66.8841 61.5085 66.4001 61.5085ZM58.4878 59.758H65.5248V47.8257H58.4878V59.758Z" fill="#050505"/>
<path id="Vector_4" d="M27.8115 47.8256H19.2376C18.7544 47.8256 18.3623 47.4343 18.3623 46.9503V36.6661C18.3623 36.183 18.7544 35.7909 19.2376 35.7909H27.8115C28.2946 35.7909 28.6868 36.183 28.6868 36.6661V46.9503C28.6868 47.4343 28.2946 47.8256 27.8115 47.8256ZM20.1128 46.0751H26.9363V37.5414H20.1128V46.0751Z" fill="#050505"/>
<path id="Vector_5" d="M25.7738 37.5423H21.0799C20.5967 37.5423 20.2046 37.1502 20.2046 36.6671V13.1307H19.2384C18.7552 13.1307 18.3631 12.7386 18.3631 12.2555V12.189C17.7075 11.0231 16.2074 10.203 14.3912 10.0323C12.6503 9.86954 10.3336 10.3098 9.05395 12.0428C8.82901 12.3474 8.43164 12.4725 8.07629 12.3544C7.71744 12.2362 7.47412 11.901 7.47412 11.5229C7.47412 5.50729 12.3685 0.61377 18.3841 0.61377H27.7222C28.2053 0.61377 28.5974 1.00588 28.5974 1.48902V1.74984C28.5974 1.98966 28.6954 2.21023 28.8731 2.37215C29.0499 2.53407 29.2783 2.61372 29.5243 2.58658C29.9479 2.54632 30.2796 2.14633 30.2796 1.67545V1.48902C30.2796 1.00588 30.6717 0.61377 31.1549 0.61377H33.7605C35.2309 0.61377 36.4274 1.81024 36.4274 3.28066V9.73212C36.4274 11.2025 35.2309 12.399 33.7605 12.399H31.1549C30.6717 12.399 30.2796 12.0069 30.2796 11.5238V11.2629C30.2796 11.0231 30.1816 10.8026 30.0039 10.6406C29.8263 10.4787 29.5961 10.4017 29.3536 10.4262C28.93 10.4665 28.5974 10.8664 28.5974 11.3365V12.2555C28.5974 12.7386 28.2053 13.1307 27.7222 13.1307H26.6491V36.6671C26.6491 37.1502 26.257 37.5423 25.7738 37.5423ZM21.9551 35.7918H24.8986V12.2555C24.8986 11.7723 25.2907 11.3802 25.7738 11.3802H26.8469V11.3365C26.8469 9.97369 27.8744 8.80874 29.1873 8.68357C29.9138 8.61531 30.6429 8.85512 31.1811 9.34526C31.5663 9.69449 31.8341 10.1505 31.9557 10.6485H33.7605C34.2655 10.6485 34.6769 10.2371 34.6769 9.73212V3.28066C34.676 2.77564 34.2646 2.36427 33.7596 2.36427H31.94C31.6634 3.41282 30.7733 4.22593 29.6897 4.32921C28.9633 4.39748 28.2342 4.15766 27.695 3.66752C27.3108 3.31742 27.043 2.86141 26.9213 2.36427H18.3841C14.0805 2.36427 10.4605 5.34712 9.48457 9.35402C10.8972 8.50677 12.688 8.11641 14.5558 8.28884C17.0003 8.5199 18.9837 9.66823 19.9167 11.3802H21.0808C21.5639 11.3802 21.956 11.7723 21.956 12.2555V35.7918H21.9551Z" fill="#050505"/>
<path id="Vector_6" d="M43.7242 47.8256H36.9568C36.4736 47.8256 36.0815 47.4343 36.0815 46.9503V33.6562C32.823 32.0431 30.7495 28.7311 30.7495 25.0603C30.7495 21.414 32.7801 18.131 36.0492 16.4908C36.3187 16.3542 36.6426 16.3682 36.9016 16.5284C37.1598 16.6877 37.3174 16.9695 37.3174 17.2732V23.1006C37.3174 24.768 38.674 26.1246 40.3414 26.1246C42.0087 26.1246 43.3654 24.768 43.3654 23.1006V17.2732C43.3654 16.9695 43.5229 16.6877 43.7811 16.5284C44.0411 16.3691 44.3623 16.3542 44.6336 16.4908C47.9027 18.131 49.9341 21.414 49.9341 25.0603C49.9341 28.7302 47.8598 32.0431 44.6012 33.6562V46.9503C44.5995 47.4343 44.2082 47.8256 43.7242 47.8256ZM37.8312 46.0751H42.8481V33.0942C42.8481 32.7424 43.059 32.4247 43.3829 32.2881C46.2975 31.0593 48.1801 28.2217 48.1801 25.0603C48.1801 22.5851 47.0335 20.3138 45.1132 18.8469V23.0998C45.1132 25.7325 42.9715 27.8743 40.3388 27.8743C37.706 27.8743 35.5643 25.7325 35.5643 23.0998V18.8469C33.644 20.3138 32.4983 22.5851 32.4983 25.0603C32.4983 28.2226 34.3809 31.0593 37.2955 32.2881C37.6202 32.4247 37.8303 32.7424 37.8303 33.0942L37.8312 46.0751Z" fill="#050505"/>
<path id="Vector_7" d="M58.9099 47.8256H53.598C53.114 47.8256 52.7228 47.4344 52.7228 46.9504V23.4088L51.2419 20.5003C51.1342 20.2894 51.1167 20.0452 51.192 19.822L53.7932 12.1618C53.914 11.8064 54.2475 11.5675 54.6221 11.5675H57.8868C58.2622 11.5675 58.5957 11.8064 58.7156 12.1618L61.3169 19.822C61.3921 20.0452 61.3746 20.2902 61.267 20.5003L59.7852 23.4088V46.9504C59.7852 47.4344 59.3939 47.8256 58.9099 47.8256ZM54.4733 46.0751H58.0347V23.1987C58.0347 23.0604 58.0671 22.9247 58.1301 22.8013L59.5392 20.0347L57.2592 13.318H55.2488L52.9687 20.0347L54.377 22.8013C54.44 22.9247 54.4724 23.0604 54.4724 23.1987L54.4733 46.0751Z" fill="#050505"/>
<path id="Vector_8" d="M14.8271 47.8256H7.78745C7.39709 47.8256 7.05312 47.5666 6.94634 47.1911L2.07032 30.1421C1.75785 29.048 1.88914 27.8988 2.44142 26.9037C2.99371 25.9094 3.90047 25.189 4.99453 24.8766C6.08772 24.5632 7.23779 24.6945 8.23295 25.2477C9.22724 25.8 9.94757 26.7067 10.26 27.8008L15.6691 46.7106C15.7443 46.9749 15.6918 47.2593 15.5264 47.479C15.361 47.697 15.1019 47.8256 14.8271 47.8256ZM8.44739 46.0751H13.6665L8.57693 28.2813C8.39312 27.6371 7.96863 27.1032 7.38309 26.7776C6.79754 26.4529 6.1201 26.375 5.47504 26.5588C4.83086 26.7426 4.29695 27.1671 3.97136 27.7527C3.64577 28.3382 3.56875 29.0156 3.75255 29.6607L8.44739 46.0751Z" fill="#050505"/>
<path id="Vector_9" d="M6.46477 30.8974C6.08403 30.8974 5.73393 30.6471 5.62365 30.2629L5.38121 29.4148C5.24817 28.95 5.51687 28.4651 5.98163 28.3321C6.44726 28.1982 6.9304 28.4677 7.06431 28.9325L7.30676 29.7806C7.4398 30.2454 7.17109 30.7303 6.70634 30.8633C6.62581 30.8861 6.54442 30.8974 6.46477 30.8974Z" fill="#050505"/>
<path id="Vector_10" d="M69.7429 47.8256H62.7785C62.5098 47.8256 62.256 47.7022 62.0906 47.4913C61.9251 47.2803 61.8648 47.0046 61.9278 46.7438L64.4179 36.4745C62.5334 34.5209 61.7659 31.7341 62.4109 29.0751C62.9116 27.0113 64.1859 25.2643 66.0003 24.1588C67.8147 23.0525 69.9512 22.7182 72.0142 23.2206C76.2757 24.2534 78.9032 28.5613 77.8696 32.8238C77.2254 35.4828 75.2657 37.6088 72.696 38.4814L70.5936 47.156C70.4991 47.5499 70.1472 47.8256 69.7429 47.8256ZM63.8918 46.0751H69.0549L71.1135 37.5843C71.1888 37.2727 71.4277 37.0276 71.7376 36.9454C73.9362 36.3572 75.6333 34.6198 76.169 32.4124C76.9742 29.0882 74.9252 25.729 71.6019 24.9229C69.9932 24.5334 68.3276 24.7925 66.9114 25.6546C65.497 26.5168 64.5028 27.8787 64.1124 29.4891C63.5776 31.6965 64.2909 34.0185 65.9749 35.5476C66.2121 35.7629 66.3128 36.0902 66.2375 36.4018L63.8918 46.0751Z" fill="#050505"/>
<path id="Vector_11" d="M70.1469 34.8981C69.8353 34.8981 69.5211 34.8614 69.2104 34.7852C68.1855 34.5367 67.3199 33.9047 66.7711 33.0041C66.2223 32.1035 66.0578 31.0444 66.3063 30.0204C66.554 28.9963 67.1868 28.1298 68.0866 27.5811C68.9863 27.0331 70.0445 26.8668 71.0703 27.1154C72.0952 27.364 72.9609 27.9959 73.5096 28.8957C74.0584 29.7954 74.223 30.8554 73.9744 31.8794C73.7267 32.9034 73.0939 33.7708 72.1941 34.3196C71.5675 34.7021 70.8638 34.8981 70.1469 34.8981ZM70.1364 28.7548C69.7382 28.7548 69.3469 28.8642 68.9977 29.0769C68.4971 29.3823 68.1452 29.8637 68.0069 30.4335C67.8687 31.0033 67.9606 31.5932 68.266 32.0938C68.5715 32.5945 69.0529 32.9463 69.6227 33.0846C70.1933 33.222 70.7824 33.1319 71.283 32.8256C71.7836 32.5201 72.1355 32.0387 72.2738 31.4689C72.4121 30.8991 72.3202 30.3092 72.0147 29.8094C71.7093 29.3097 71.2279 28.9569 70.6581 28.8187C70.4848 28.7749 70.3106 28.7548 70.1364 28.7548Z" fill="#050505"/>
</g>
</g>
</g>
</svg>
