<svg width="80" height="80" viewBox="0 0 80 80" fill="none" xmlns="http://www.w3.org/2000/svg">
<path d="M72 27.4672V10C60.821 10 49.9214 13.7729 42.096 20.3406L40 22.0175L37.9039 20.3406C29.9388 13.7729 19.179 10 8 10V27.4672C8 32.2183 9.67687 36.6899 12.4716 40.4629C9.67687 44.2358 8 48.7074 8 53.4585V70.9257C19.179 70.9257 30.0786 67.1528 37.9039 60.5851L40 58.9083C34.5502 55.6943 31.1965 49.965 31.1965 43.5371V37.3886C31.1965 31.1004 34.5502 25.2314 40 22.0175C45.4498 25.2314 48.8035 31.1004 48.8035 37.3886V43.5371C48.8035 49.8253 45.4498 55.6943 40 58.9083L42.096 60.5851C50.0611 67.1528 60.821 70.9257 72 70.9257V53.4585C72 48.7074 70.3231 44.2358 67.5284 40.4629C70.3231 36.6899 72 32.2183 72 27.4672Z" fill="#F5F5F5"/>
</svg>
