<svg width="80" height="80" viewBox="0 0 80 80" fill="none" xmlns="http://www.w3.org/2000/svg">
<path d="M29.4953 33.3814C37.8748 29.3738 44.4327 22.5731 48.1974 14.0721C45.7685 11.5218 42.611 9.70019 39.2106 8.60721L37.389 8C37.2676 8.24288 37.1461 8.60723 37.1461 8.85011C34.2315 17.1082 28.2809 23.7875 20.2657 27.5522C14.6793 30.2239 10.5503 35.0816 8.60721 40.9108L8 42.7325C8.24288 42.8539 8.60722 42.9753 8.8501 42.9753C11.1575 43.8254 13.4649 44.9184 15.6509 46.2543C18.6869 40.7894 23.5446 36.1746 29.4953 33.3814Z" fill="#F5F5F5"/>
<path d="M64.7135 33.8671C60.2201 40.6678 54.0266 46.1327 46.3757 49.776C40.1822 52.6906 35.4459 58.1555 33.26 64.7134L32.6528 66.7779C34.9602 68.8424 37.7533 70.4212 40.7894 71.3927L42.611 71.9999C42.7325 71.7571 42.8539 71.3927 42.8539 71.1498C45.7685 62.8918 51.7192 56.2125 59.7344 52.4477C65.3207 49.776 69.5712 44.9183 71.3928 39.0891L72 37.2675C69.4497 36.5388 67.0209 35.3244 64.7135 33.8671Z" fill="#F5F5F5"/>
<path d="M27.7951 60.4631C30.8311 53.1765 36.4175 47.2258 43.5826 43.8255C50.1404 40.668 55.6054 35.8103 59.3701 29.8596C56.5769 27.1879 54.2695 24.1518 52.5693 20.5085C48.0759 28.7666 41.0323 35.446 32.4099 39.575C27.4308 41.8824 23.4232 45.89 20.9943 50.7477C23.6661 53.298 25.852 56.4554 27.5522 59.9773C27.5522 59.9773 27.6736 60.2202 27.7951 60.4631Z" fill="#F5F5F5"/>
</svg>
