<svg width="120" height="120" viewBox="0 0 120 120" fill="none" xmlns="http://www.w3.org/2000/svg">
<g id="factory 1">
<path id="Vector" d="M50.625 93.6117H44.4164C44.1974 93.6117 43.9873 93.6985 43.8322 93.8532C43.6771 94.0078 43.5897 94.2177 43.5891 94.4367V100.404C43.5891 100.623 43.6762 100.834 43.8314 100.989C43.9865 101.144 44.197 101.231 44.4164 101.231H50.625C50.8444 101.231 51.0549 101.144 51.21 100.989C51.3652 100.834 51.4523 100.623 51.4523 100.404V94.4367C51.4517 94.2177 51.3643 94.0078 51.2092 93.8532C51.0541 93.6985 50.844 93.6117 50.625 93.6117ZM49.7976 99.5765H45.2344V95.264H49.793L49.7976 99.5765Z" fill="#050505"/>
<path id="Vector_2" d="M63.2461 93.6117H57.0328C56.8138 93.6117 56.6037 93.6985 56.4486 93.8532C56.2935 94.0078 56.2061 94.2177 56.2054 94.4367V100.404C56.2054 100.623 56.2926 100.834 56.4478 100.989C56.6029 101.144 56.8134 101.231 57.0328 101.231H63.2461C63.4655 101.231 63.6759 101.144 63.8311 100.989C63.9863 100.834 64.0734 100.623 64.0734 100.404V94.4367C64.0728 94.2177 63.9854 94.0078 63.8303 93.8532C63.6752 93.6985 63.4651 93.6117 63.2461 93.6117ZM62.4187 99.5765H57.8601V95.264H62.4187V99.5765Z" fill="#050505"/>
<path id="Vector_3" d="M75.5835 93.6117H69.375C69.1559 93.6117 68.9458 93.6985 68.7908 93.8532C68.6357 94.0078 68.5482 94.2177 68.5476 94.4367V100.404C68.5476 100.623 68.6348 100.834 68.7899 100.989C68.9451 101.144 69.1555 101.231 69.375 101.231H75.5882C75.8077 101.231 76.0181 101.144 76.1732 100.989C76.3284 100.834 76.4156 100.623 76.4156 100.404V94.4367C76.4153 94.3279 76.3935 94.2201 76.3515 94.1197C76.3095 94.0193 76.2481 93.9282 76.1708 93.8515C76.0935 93.7749 76.0018 93.7143 75.9011 93.6731C75.8003 93.632 75.6924 93.6111 75.5835 93.6117ZM74.7656 99.5765H70.1976V95.264H74.7656V99.5765Z" fill="#050505"/>
<path id="Vector_4" d="M50.625 81.3727H44.4164C44.1974 81.3727 43.9873 81.4595 43.8322 81.6142C43.6771 81.7688 43.5897 81.9787 43.5891 82.1977V88.1649C43.5891 88.3843 43.6762 88.5947 43.8314 88.7499C43.9865 88.905 44.197 88.9922 44.4164 88.9922H50.625C50.8444 88.9922 51.0549 88.905 51.21 88.7499C51.3652 88.5947 51.4523 88.3843 51.4523 88.1649V82.1977C51.4517 81.9787 51.3643 81.7688 51.2092 81.6142C51.0541 81.4595 50.844 81.3727 50.625 81.3727ZM49.7976 87.3375H45.2344V83.025H49.793L49.7976 87.3375Z" fill="#050505"/>
<path id="Vector_5" d="M63.2461 81.3727H57.0328C56.8138 81.3727 56.6037 81.4595 56.4486 81.6142C56.2935 81.7688 56.2061 81.9787 56.2054 82.1977V88.1649C56.2054 88.3843 56.2926 88.5947 56.4478 88.7499C56.6029 88.905 56.8134 88.9922 57.0328 88.9922H63.2461C63.4655 88.9922 63.6759 88.905 63.8311 88.7499C63.9863 88.5947 64.0734 88.3843 64.0734 88.1649V82.1977C64.0728 81.9787 63.9854 81.7688 63.8303 81.6142C63.6752 81.4595 63.4651 81.3727 63.2461 81.3727ZM62.4187 87.3375H57.8601V83.025H62.4187V87.3375Z" fill="#050505"/>
<path id="Vector_6" d="M75.5835 81.3727H69.375C69.1559 81.3727 68.9458 81.4595 68.7908 81.6142C68.6357 81.7688 68.5482 81.9787 68.5476 82.1977V88.1649C68.5476 88.2735 68.569 88.3811 68.6106 88.4815C68.6522 88.5819 68.7131 88.6731 68.7899 88.7499C68.8668 88.8267 68.958 88.8877 69.0583 88.9292C69.1587 88.9708 69.2663 88.9922 69.375 88.9922H75.5882C75.8077 88.9922 76.0181 88.9051 76.1732 88.7499C76.3284 88.5947 76.4156 88.3843 76.4156 88.1649V82.1977C76.4153 82.0888 76.3935 81.9811 76.3515 81.8807C76.3095 81.7803 76.2481 81.6892 76.1708 81.6125C76.0935 81.5359 76.0018 81.4753 75.9011 81.4341C75.8003 81.3929 75.6924 81.3721 75.5835 81.3727ZM74.7656 87.3375H70.1976V83.025H74.7656V87.3375Z" fill="#050505"/>
<path id="Vector_7" d="M50.625 69.1406H44.4164C44.1974 69.1406 43.9873 69.2275 43.8322 69.3821C43.6771 69.5368 43.5897 69.7466 43.5891 69.9656V75.9375C43.5891 76.1569 43.6762 76.3674 43.8314 76.5225C43.9865 76.6777 44.197 76.7648 44.4164 76.7648H50.625C50.8444 76.7648 51.0549 76.6777 51.21 76.5225C51.3652 76.3674 51.4523 76.1569 51.4523 75.9375V69.9586C51.4499 69.7408 51.3616 69.5328 51.2067 69.3796C51.0518 69.2265 50.8428 69.1406 50.625 69.1406ZM49.7976 75.1055H45.2344V70.7812H49.793L49.7976 75.1055Z" fill="#050505"/>
<path id="Vector_8" d="M63.2461 69.1406H57.0328C56.8138 69.1406 56.6037 69.2275 56.4486 69.3821C56.2935 69.5368 56.2061 69.7466 56.2054 69.9656V75.9375C56.2054 76.1569 56.2926 76.3674 56.4478 76.5225C56.6029 76.6777 56.8134 76.7648 57.0328 76.7648H63.2461C63.4655 76.7648 63.6759 76.6777 63.8311 76.5225C63.9863 76.3674 64.0734 76.1569 64.0734 75.9375V69.9586C64.0709 69.7408 63.9827 69.5328 63.8278 69.3796C63.6729 69.2265 63.4639 69.1406 63.2461 69.1406ZM62.4187 75.1055H57.8601V70.7812H62.4187V75.1055Z" fill="#050505"/>
<path id="Vector_9" d="M75.5835 69.1406H69.375C69.1559 69.1406 68.9458 69.2275 68.7908 69.3821C68.6357 69.5368 68.5482 69.7466 68.5476 69.9656V75.9375C68.5476 76.1569 68.6348 76.3674 68.7899 76.5225C68.9451 76.6777 69.1555 76.7648 69.375 76.7648H75.5882C75.806 76.7624 76.0141 76.6741 76.1672 76.5192C76.3203 76.3643 76.4062 76.1553 76.4062 75.9375V69.9586C76.4037 69.7416 76.3161 69.5343 76.1623 69.3813C76.0084 69.2283 75.8005 69.1418 75.5835 69.1406ZM74.7656 75.0984H70.1976V70.7812H74.7656V75.0984Z" fill="#050505"/>
<path id="Vector_10" d="M50.625 56.8945H44.4164C44.3079 56.8942 44.2003 56.9153 44.1 56.9567C43.9996 56.998 43.9084 57.0587 43.8315 57.1353C43.7547 57.212 43.6937 57.303 43.6521 57.4033C43.6105 57.5035 43.589 57.611 43.5891 57.7195V63.6867C43.5891 63.9061 43.6762 64.1166 43.8314 64.2717C43.9865 64.4269 44.197 64.5141 44.4164 64.5141H50.625C50.8444 64.5141 51.0549 64.4269 51.21 64.2717C51.3652 64.1166 51.4523 63.9061 51.4523 63.6867V57.7195C51.4523 57.611 51.4309 57.5035 51.3893 57.4033C51.3477 57.303 51.2867 57.212 51.2099 57.1353C51.133 57.0587 51.0418 56.998 50.9414 56.9567C50.8411 56.9153 50.7335 56.8942 50.625 56.8945ZM49.7976 62.8594H45.2344V58.5469H49.793L49.7976 62.8594Z" fill="#050505"/>
<path id="Vector_11" d="M63.2461 56.8945H57.0328C56.9243 56.8942 56.8167 56.9153 56.7164 56.9567C56.616 56.998 56.5248 57.0587 56.4479 57.1353C56.3711 57.212 56.3101 57.303 56.2685 57.4033C56.2269 57.5035 56.2054 57.611 56.2054 57.7195V63.6867C56.2054 63.9061 56.2926 64.1166 56.4478 64.2717C56.6029 64.4269 56.8134 64.5141 57.0328 64.5141H63.2461C63.4655 64.5141 63.6759 64.4269 63.8311 64.2717C63.9863 64.1166 64.0734 63.9061 64.0734 63.6867V57.7195C64.0734 57.611 64.052 57.5035 64.0104 57.4033C63.9688 57.303 63.9078 57.212 63.831 57.1353C63.7541 57.0587 63.6629 56.998 63.5625 56.9567C63.4621 56.9153 63.3546 56.8942 63.2461 56.8945ZM62.4187 62.8594H57.8601V58.5469H62.4187V62.8594Z" fill="#050505"/>
<path id="Vector_12" d="M75.5835 56.8946H69.375C69.2664 56.8943 69.1589 56.9154 69.0585 56.9567C68.9582 56.998 68.8669 57.0587 68.7901 57.1354C68.7132 57.212 68.6522 57.3031 68.6106 57.4033C68.569 57.5036 68.5476 57.611 68.5476 57.7196V63.6868C68.5476 63.9062 68.6348 64.1166 68.7899 64.2718C68.9451 64.4269 69.1555 64.5141 69.375 64.5141H75.5882C75.8077 64.5141 76.0181 64.4269 76.1732 64.2718C76.3284 64.1166 76.4156 63.9062 76.4156 63.6868V57.7196C76.4156 57.6106 76.394 57.5028 76.3521 57.4022C76.3102 57.3017 76.2488 57.2104 76.1715 57.1337C76.0941 57.057 76.0023 56.9964 75.9014 56.9553C75.8005 56.9143 75.6925 56.8936 75.5835 56.8946ZM74.7656 62.8594H70.1976V58.5469H74.7656V62.8594Z" fill="#050505"/>
<path id="Vector_13" d="M111.563 105.11H103.406V97.9688C103.403 95.5846 102.64 93.2635 101.228 91.3428C99.8154 89.422 97.8273 88.0017 95.5524 87.2883V46.1555C95.548 41.9828 93.8885 37.9822 90.9379 35.0316C87.9874 32.0811 83.9868 30.4216 79.8141 30.4172H67.9875V27.5344C67.985 25.5351 67.2424 23.6074 65.903 22.123C64.5636 20.6387 62.7222 19.7026 60.7336 19.4953V14.0625C60.7336 13.8431 60.6464 13.6327 60.4913 13.4775C60.3361 13.3223 60.1257 13.2352 59.9063 13.2352C59.6868 13.2352 59.4764 13.3223 59.3212 13.4775C59.1661 13.6327 59.0789 13.8431 59.0789 14.0625V19.4953C57.0904 19.7026 55.2489 20.6387 53.9095 22.123C52.5701 23.6074 51.8276 25.5351 51.825 27.5344V32.6719C51.1578 31.7894 50.3162 31.0536 49.3526 30.5101C48.3889 29.9666 47.3238 29.627 46.2234 29.5125V14.0625C46.2294 13.9503 46.2125 13.8381 46.1737 13.7327C46.1349 13.6272 46.075 13.5308 45.9977 13.4493C45.9204 13.3677 45.8273 13.3028 45.724 13.2584C45.6208 13.214 45.5096 13.1912 45.3973 13.1912C45.2849 13.1912 45.1737 13.214 45.0705 13.2584C44.9673 13.3028 44.8742 13.3677 44.7969 13.4493C44.7196 13.5308 44.6597 13.6272 44.6209 13.7327C44.5821 13.8381 44.5651 13.9503 44.5711 14.0625V29.5125C42.8087 29.6972 41.1557 30.4554 39.866 31.6706C38.5763 32.8858 37.7212 34.4908 37.432 36.2391H35.8453C32.8234 36.2422 29.9262 37.444 27.7894 39.5808C25.6526 41.7176 24.4508 44.6148 24.4477 47.6367V60.1594C22.1728 60.8728 20.1847 62.2931 18.7722 64.2139C17.3598 66.1346 16.5967 68.4557 16.5938 70.8399V105.11H8.43751C8.21809 105.11 8.00765 105.197 7.85249 105.352C7.69733 105.508 7.61017 105.718 7.61017 105.938C7.61017 106.157 7.69733 106.367 7.85249 106.523C8.00765 106.678 8.21809 106.765 8.43751 106.765H111.563C111.782 106.765 111.992 106.678 112.148 106.523C112.303 106.367 112.39 106.157 112.39 105.938C112.39 105.718 112.303 105.508 112.148 105.352C111.992 105.197 111.782 105.11 111.563 105.11ZM79.8141 32.0719C83.5479 32.0762 87.1276 33.5614 89.7679 36.2017C92.4081 38.8419 93.8933 42.4216 93.8977 46.1555V86.775H90.5391V46.1555C90.536 43.312 89.405 40.5859 87.3944 38.5752C85.3837 36.5645 82.6576 35.4336 79.8141 35.4305H67.9875V32.0719H79.8141ZM82.6852 92.1399V48.8461C82.6845 48.6271 82.5971 48.4173 82.442 48.2626C82.2869 48.108 82.0768 48.0211 81.8578 48.0211H67.9875V37.0852H79.8141C82.2189 37.0877 84.5245 38.0441 86.225 39.7446C87.9255 41.445 88.8819 43.7507 88.8844 46.1555V87.2836C86.2994 88.1008 84.0974 89.8257 82.6852 92.1399ZM59.9063 21.1078C61.4679 21.1109 62.975 21.6819 64.1467 22.7143C65.3184 23.7467 66.0746 25.17 66.2742 26.7188H53.5383C53.738 25.17 54.4942 23.7467 55.6658 22.7143C56.8375 21.6819 58.3447 21.1109 59.9063 21.1078ZM53.4774 28.3735H66.3281V48.0328H53.4774V28.3594V28.3735ZM45.3961 31.1344C47.1006 31.1363 48.7347 31.8142 49.94 33.0194C51.1452 34.2247 51.8232 35.8588 51.825 37.5633V48.0328H38.9695V42.0797V37.5446C38.9733 35.8417 39.6517 34.2097 40.8562 33.0061C42.0608 31.8024 43.6932 31.1252 45.3961 31.1227V31.1344ZM37.3149 90.5953H18.2461V76.7672H37.3149V90.5953ZM18.2461 92.2477H37.3149V105.096H18.2461V92.2477ZM37.3149 48.8578V65.0297C35.9026 62.7155 33.7006 60.9906 31.1156 60.1735V47.6367C31.1169 46.3825 31.6155 45.18 32.5022 44.2929C33.3888 43.4058 34.5911 42.9066 35.8453 42.9047H37.3149V48.8578ZM26.1024 59.6625V47.6367C26.1048 45.0533 27.132 42.5763 28.9586 40.7493C30.7852 38.9223 33.2619 37.8945 35.8453 37.8914H37.3149V41.25H35.8453C34.1527 41.2519 32.5298 41.9251 31.3329 43.122C30.136 44.3189 29.4628 45.9417 29.4609 47.6344V59.6485L26.1024 59.6625ZM27.7805 61.3172C30.3082 61.3203 32.7315 62.3258 34.5189 64.1132C36.3062 65.9006 37.3118 68.3239 37.3149 70.8516V75.1102H18.2461V70.8399C18.2492 68.3121 19.2547 65.8888 21.0421 64.1015C22.8295 62.3141 25.2528 61.3086 27.7805 61.3055V61.3172ZM38.9695 70.8516V49.6735H81.0305V105.11H38.9695V70.8516ZM82.6852 105.11V97.9688C82.6852 95.4401 83.6897 93.015 85.4777 91.2269C87.2658 89.4389 89.6909 88.4344 92.2195 88.4344C94.7482 88.4344 97.1733 89.4389 98.9614 91.2269C100.749 93.015 101.754 95.4401 101.754 97.9688V105.115L82.6852 105.11Z" fill="#050505"/>
</g>
</svg>
