<svg width="120" height="120" viewBox="0 0 120 120" fill="none" xmlns="http://www.w3.org/2000/svg">
<path d="M69.5086 49.4203C69.5086 47.6487 68.9832 45.9167 67.9989 44.4436C67.0146 42.9705 65.6156 41.8224 63.9788 41.1444C62.342 40.4664 60.5408 40.289 58.8032 40.6347C57.0655 40.9803 55.4694 41.8334 54.2166 43.0862C52.9639 44.339 52.1107 45.9351 51.7651 47.6728C51.4194 49.4104 51.5968 51.2115 52.2748 52.8483C52.9528 54.4852 54.101 55.8842 55.5741 56.8685C57.0472 57.8528 58.7791 58.3782 60.5508 58.3782C62.9258 58.3757 65.2028 57.4311 66.8822 55.7517C68.5615 54.0724 69.5061 51.7953 69.5086 49.4203ZM60.5508 56.686C59.1138 56.686 57.709 56.2598 56.5142 55.4615C55.3194 54.6631 54.3881 53.5284 53.8382 52.2008C53.2883 50.8732 53.1444 49.4123 53.4248 48.0029C53.7051 46.5935 54.3971 45.2989 55.4132 44.2828C56.4293 43.2667 57.7239 42.5747 59.1333 42.2943C60.5427 42.014 62.0036 42.1579 63.3312 42.7078C64.6588 43.2577 65.7936 44.189 66.5919 45.3838C67.3903 46.5786 67.8164 47.9833 67.8164 49.4203C67.8158 51.3469 67.05 53.1943 65.6875 54.5564C64.325 55.9185 62.4773 56.6836 60.5508 56.6836V56.686Z" fill="#050505"/>
<path d="M63.9703 48.5719H61.4063V45.2133C61.3948 44.9963 61.3006 44.7919 61.143 44.6424C60.9853 44.4928 60.7763 44.4094 60.559 44.4094C60.3417 44.4094 60.1327 44.4928 59.975 44.6424C59.8174 44.7919 59.7231 44.9963 59.7117 45.2133V49.432C59.7117 49.6571 59.8011 49.8729 59.9602 50.032C60.1193 50.1911 60.3352 50.2805 60.5602 50.2805H63.9797C64.2047 50.2805 64.4205 50.1911 64.5796 50.032C64.7387 49.8729 64.8281 49.6571 64.8281 49.432C64.8281 49.207 64.7387 48.9912 64.5796 48.8321C64.4205 48.673 64.2047 48.5836 63.9797 48.5836L63.9703 48.5719Z" fill="#050505"/>
<path d="M56.6461 65.475H49.132C49.02 65.4747 48.9091 65.4965 48.8056 65.5393C48.702 65.5821 48.608 65.645 48.5289 65.7243C48.4498 65.8036 48.3872 65.8978 48.3447 66.0014C48.3022 66.1051 48.2806 66.2161 48.2813 66.3281V73.1672C48.2813 73.2786 48.3032 73.3889 48.3458 73.4919C48.3885 73.5948 48.451 73.6883 48.5298 73.7671C48.6085 73.8459 48.7021 73.9084 48.805 73.951C48.908 73.9937 49.0183 74.0156 49.1297 74.0156H56.6438C56.7552 74.0156 56.8655 73.9937 56.9684 73.951C57.0714 73.9084 57.1649 73.8459 57.2437 73.7671C57.3225 73.6883 57.385 73.5948 57.4276 73.4919C57.4703 73.3889 57.4922 73.2786 57.4922 73.1672V66.3281C57.4928 66.2165 57.4714 66.1058 57.4292 66.0025C57.387 65.8992 57.3248 65.8052 57.2462 65.726C57.1676 65.6467 57.0741 65.5838 56.9712 65.5407C56.8682 65.4976 56.7577 65.4753 56.6461 65.475ZM55.8 72.3164H49.9781V67.1601H55.8V72.3164Z" fill="#050505"/>
<path d="M70.6898 65.475H63.1758C62.9507 65.475 62.7349 65.5644 62.5758 65.7235C62.4167 65.8826 62.3273 66.0984 62.3273 66.3234V73.1625C62.3273 73.3875 62.4167 73.6033 62.5758 73.7624C62.7349 73.9215 62.9507 74.0109 63.1758 74.0109H70.6898C70.9149 74.0109 71.1307 73.9215 71.2898 73.7624C71.4489 73.6033 71.5383 73.3875 71.5383 73.1625V66.3281C71.5389 66.2163 71.5174 66.1055 71.475 66.002C71.4327 65.8985 71.3703 65.8044 71.2914 65.7251C71.2126 65.6459 71.1188 65.5829 71.0156 65.54C70.9124 65.4971 70.8016 65.475 70.6898 65.475ZM69.8437 72.3164H64.0219V67.1601H69.8437V72.3164Z" fill="#050505"/>
<path d="M56.6461 78.3562H49.132C48.907 78.3562 48.6912 78.4456 48.5321 78.6047C48.373 78.7638 48.2836 78.9796 48.2836 79.2046V86.0437C48.2836 86.2687 48.373 86.4845 48.5321 86.6436C48.6912 86.8027 48.907 86.8921 49.132 86.8921H56.6461C56.8711 86.8921 57.0869 86.8027 57.246 86.6436C57.4051 86.4845 57.4945 86.2687 57.4945 86.0437V79.2046C57.4945 78.9796 57.4051 78.7638 57.246 78.6047C57.0869 78.4456 56.8711 78.3562 56.6461 78.3562ZM55.8 85.1976H49.9781V80.0414H55.8V85.1976Z" fill="#050505"/>
<path d="M70.6898 78.3562H63.1758C62.9507 78.3562 62.7349 78.4456 62.5758 78.6047C62.4167 78.7638 62.3273 78.9796 62.3273 79.2046V86.0437C62.3273 86.2687 62.4167 86.4845 62.5758 86.6436C62.7349 86.8027 62.9507 86.8921 63.1758 86.8921H70.6898C70.9148 86.8921 71.1307 86.8027 71.2898 86.6436C71.4489 86.4845 71.5383 86.2687 71.5383 86.0437V79.2046C71.5383 78.9796 71.4489 78.7638 71.2898 78.6047C71.1307 78.4456 70.9148 78.3562 70.6898 78.3562ZM69.8437 85.1976H64.0219V80.0414H69.8437V85.1976Z" fill="#050505"/>
<path d="M86.6812 69.1618H93.3469C93.5719 69.1618 93.7877 69.0724 93.9468 68.9133C94.1059 68.7542 94.1953 68.5383 94.1953 68.3133V61.6407C94.1953 61.4157 94.1059 61.1999 93.9468 61.0407C93.7877 60.8816 93.5719 60.7922 93.3469 60.7922H86.6812C86.4562 60.7922 86.2404 60.8816 86.0813 61.0407C85.9222 61.1999 85.8328 61.4157 85.8328 61.6407V68.3063C85.8319 68.4183 85.8531 68.5294 85.8953 68.6331C85.9376 68.7369 85.9999 68.8313 86.0788 68.9108C86.1577 68.9903 86.2515 69.0534 86.3549 69.0965C86.4583 69.1396 86.5692 69.1618 86.6812 69.1618ZM87.5273 62.4938H92.4984V67.4649H87.5273V62.4938Z" fill="#050505"/>
<path d="M97.9688 69.1618H104.634C104.859 69.1618 105.075 69.0724 105.234 68.9133C105.393 68.7542 105.483 68.5383 105.483 68.3133V61.6407C105.483 61.4157 105.393 61.1999 105.234 61.0407C105.075 60.8816 104.859 60.7922 104.634 60.7922H97.9688C97.8575 60.7922 97.7472 60.8142 97.6444 60.8569C97.5416 60.8995 97.4483 60.9621 97.3697 61.0409C97.2911 61.1197 97.2288 61.2132 97.1864 61.3162C97.144 61.4191 97.1224 61.5294 97.1227 61.6407V68.3063C97.1214 68.4182 97.1424 68.5292 97.1844 68.633C97.2263 68.7367 97.2885 68.8311 97.3671 68.9106C97.4458 68.9902 97.5395 69.0534 97.6428 69.0965C97.7461 69.1396 97.8569 69.1618 97.9688 69.1618ZM98.8172 62.4938H103.788V67.4649H98.8242L98.8172 62.4938Z" fill="#050505"/>
<path d="M86.6813 80.7258H93.3469C93.5719 80.7258 93.7877 80.6364 93.9468 80.4773C94.1059 80.3181 94.1953 80.1023 94.1953 79.8773V73.2117C94.1947 72.9871 94.105 72.7719 93.946 72.6133C93.787 72.4547 93.5715 72.3656 93.3469 72.3656H86.6813C86.4566 72.3656 86.2412 72.4547 86.0822 72.6133C85.9231 72.7719 85.8334 72.9871 85.8328 73.2117V79.8773C85.8328 80.1023 85.9222 80.3181 86.0813 80.4773C86.2404 80.6364 86.4562 80.7258 86.6813 80.7258ZM87.5274 74.0625H92.4985V79.0312H87.5274V74.0625Z" fill="#050505"/>
<path d="M97.9688 80.7258H104.634C104.859 80.7258 105.075 80.6364 105.234 80.4773C105.393 80.3181 105.483 80.1023 105.483 79.8773V73.2117C105.482 72.9871 105.393 72.7719 105.234 72.6133C105.074 72.4547 104.859 72.3656 104.634 72.3656H97.9688C97.7444 72.3656 97.5292 72.4547 97.3705 72.6134C97.2118 72.7721 97.1227 72.9873 97.1227 73.2117V79.8773C97.1224 79.9886 97.144 80.0989 97.1864 80.2018C97.2288 80.3047 97.2911 80.3983 97.3697 80.4771C97.4483 80.5559 97.5416 80.6185 97.6444 80.6611C97.7473 80.7038 97.8575 80.7258 97.9688 80.7258ZM98.8242 74.0625H103.795V79.0312H98.8242V74.0625Z" fill="#050505"/>
<path d="M94.1953 91.4437V84.7781C94.1953 84.5531 94.1059 84.3373 93.9468 84.1782C93.7877 84.0191 93.5719 83.9297 93.3469 83.9297H86.6813C86.4562 83.9297 86.2404 84.0191 86.0813 84.1782C85.9222 84.3373 85.8328 84.5531 85.8328 84.7781V91.4437C85.8328 91.6688 85.9222 91.8846 86.0813 92.0437C86.2404 92.2028 86.4562 92.2922 86.6813 92.2922H93.3469C93.5719 92.2922 93.7877 92.2028 93.9468 92.0437C94.1059 91.8846 94.1953 91.6688 94.1953 91.4437ZM92.4985 90.5977H87.5274V85.6266H92.4985V90.5977Z" fill="#050505"/>
<path d="M97.9688 92.2922H104.634C104.859 92.2922 105.075 92.2028 105.234 92.0437C105.393 91.8846 105.483 91.6688 105.483 91.4437V84.7781C105.483 84.5531 105.393 84.3373 105.234 84.1782C105.075 84.0191 104.859 83.9297 104.634 83.9297H97.9688C97.8575 83.9297 97.7473 83.9517 97.6444 83.9943C97.5416 84.037 97.4483 84.0995 97.3697 84.1783C97.2911 84.2571 97.2288 84.3507 97.1864 84.4536C97.144 84.5565 97.1224 84.6668 97.1227 84.7781V91.4437C97.1224 91.5551 97.144 91.6653 97.1864 91.7683C97.2288 91.8712 97.2911 91.9647 97.3697 92.0435C97.4483 92.1224 97.5416 92.1849 97.6444 92.2276C97.7473 92.2702 97.8575 92.2922 97.9688 92.2922ZM98.8172 85.6266H103.788V90.5977H98.8242L98.8172 85.6266Z" fill="#050505"/>
<path d="M26.6532 69.1618H33.3211C33.4324 69.1618 33.5426 69.1398 33.6454 69.0971C33.7483 69.0545 33.8416 68.9919 33.9202 68.9131C33.9988 68.8343 34.0611 68.7408 34.1035 68.6378C34.1459 68.5349 34.1675 68.4246 34.1672 68.3133V61.6407C34.1675 61.5294 34.1459 61.4191 34.1035 61.3162C34.0611 61.2132 33.9988 61.1197 33.9202 61.0409C33.8416 60.9621 33.7483 60.8995 33.6454 60.8569C33.5426 60.8142 33.4324 60.7922 33.3211 60.7922H26.6532C26.5418 60.7922 26.4316 60.8142 26.3288 60.8569C26.226 60.8995 26.1326 60.9621 26.054 61.0409C25.9754 61.1197 25.9132 61.2132 25.8708 61.3162C25.8284 61.4191 25.8068 61.5294 25.8071 61.6407V68.3063C25.8058 68.4182 25.8268 68.5292 25.8688 68.633C25.9107 68.7367 25.9728 68.8311 26.0515 68.9106C26.1302 68.9902 26.2239 69.0534 26.3272 69.0965C26.4305 69.1396 26.5412 69.1618 26.6532 69.1618ZM27.5016 62.4938H32.4727V67.4649H27.5016V62.4938Z" fill="#050505"/>
<path d="M15.3586 69.1617H22.0313C22.1427 69.1617 22.253 69.1398 22.3559 69.0971C22.4589 69.0545 22.5524 68.992 22.6312 68.9132C22.71 68.8344 22.7725 68.7409 22.8151 68.6379C22.8577 68.535 22.8797 68.4247 22.8797 68.3133V61.6406C22.8778 61.4168 22.7876 61.2028 22.6287 61.0452C22.4698 60.8876 22.2551 60.7992 22.0313 60.7992H15.3586C15.1348 60.7992 14.92 60.8876 14.7611 61.0452C14.6022 61.2028 14.512 61.4168 14.5102 61.6406V68.3062C14.5092 68.4182 14.5305 68.5293 14.5727 68.6331C14.6149 68.7368 14.6773 68.8312 14.7562 68.9107C14.835 68.9902 14.9289 69.0534 15.0323 69.0964C15.1357 69.1395 15.2466 69.1617 15.3586 69.1617ZM16.207 62.4937H21.1758V67.4648H16.207V62.4937Z" fill="#050505"/>
<path d="M26.6531 80.7258H33.3211C33.4324 80.7258 33.5426 80.7038 33.6454 80.6611C33.7482 80.6185 33.8416 80.5559 33.9202 80.4771C33.9988 80.3983 34.0611 80.3047 34.1034 80.2018C34.1458 80.0989 34.1675 79.9886 34.1672 79.8773V73.2117C34.1672 72.9873 34.078 72.7721 33.9194 72.6134C33.7607 72.4547 33.5455 72.3656 33.3211 72.3656H26.6531C26.4287 72.3656 26.2135 72.4547 26.0548 72.6134C25.8962 72.7721 25.807 72.9873 25.807 73.2117V79.8773C25.8067 79.9886 25.8284 80.0989 25.8707 80.2018C25.9131 80.3047 25.9754 80.3983 26.054 80.4771C26.1326 80.5559 26.226 80.6185 26.3288 80.6611C26.4316 80.7038 26.5418 80.7258 26.6531 80.7258ZM27.5015 74.0625H32.4726V79.0312H27.5015V74.0625Z" fill="#050505"/>
<path d="M15.3586 80.7258H22.0312C22.1426 80.7258 22.253 80.7038 22.3559 80.6612C22.4588 80.6185 22.5524 80.556 22.6312 80.4773C22.7099 80.3985 22.7724 80.3049 22.8151 80.202C22.8577 80.0991 22.8797 79.9887 22.8797 79.8773V73.2117C22.879 72.9871 22.7894 72.7719 22.6303 72.6133C22.4713 72.4547 22.2558 72.3656 22.0312 72.3656H15.3586C15.134 72.3656 14.9185 72.4547 14.7595 72.6133C14.6004 72.7719 14.5108 72.9871 14.5101 73.2117V79.8773C14.5101 80.1023 14.5995 80.3181 14.7586 80.4773C14.9177 80.6364 15.1335 80.7258 15.3586 80.7258ZM16.207 74.0625H21.1758V79.0312H16.207V74.0625Z" fill="#050505"/>
<path d="M26.6531 92.2922H33.3211C33.4324 92.2922 33.5426 92.2702 33.6454 92.2276C33.7482 92.1849 33.8416 92.1224 33.9202 92.0435C33.9988 91.9647 34.0611 91.8712 34.1034 91.7683C34.1458 91.6653 34.1675 91.5551 34.1672 91.4437V84.7781C34.1675 84.6668 34.1458 84.5565 34.1034 84.4536C34.0611 84.3507 33.9988 84.2571 33.9202 84.1783C33.8416 84.0995 33.7482 84.037 33.6454 83.9943C33.5426 83.9517 33.4324 83.9297 33.3211 83.9297H26.6531C26.5418 83.9297 26.4316 83.9517 26.3288 83.9943C26.226 84.037 26.1326 84.0995 26.054 84.1783C25.9754 84.2571 25.9131 84.3507 25.8707 84.4536C25.8284 84.5565 25.8067 84.6668 25.807 84.7781V91.4437C25.8067 91.5551 25.8284 91.6653 25.8707 91.7683C25.9131 91.8712 25.9754 91.9647 26.054 92.0435C26.1326 92.1224 26.226 92.1849 26.3288 92.2276C26.4316 92.2702 26.5418 92.2922 26.6531 92.2922ZM27.5015 85.6266H32.4726V90.5977H27.5015V85.6266Z" fill="#050505"/>
<path d="M22.8726 91.4437V84.7781C22.8726 84.5543 22.7842 84.3396 22.6266 84.1807C22.469 84.0217 22.255 83.9315 22.0312 83.9297H15.3586C15.1335 83.9297 14.9177 84.0191 14.7586 84.1782C14.5995 84.3373 14.5101 84.5531 14.5101 84.7781V91.4437C14.5101 91.6688 14.5995 91.8846 14.7586 92.0437C14.9177 92.2028 15.1335 92.2922 15.3586 92.2922H22.0312C22.255 92.2903 22.469 92.2001 22.6266 92.0412C22.7842 91.8823 22.8726 91.6676 22.8726 91.4437ZM21.1758 90.5977H16.207V85.6266H21.1758V90.5977Z" fill="#050505"/>
<path d="M115.725 107.67H99.4828V97.9922H109.167C109.392 97.9922 109.607 97.9032 109.766 97.7446C109.925 97.586 110.015 97.3708 110.016 97.1461V55.9454C110.016 55.8341 109.994 55.7238 109.951 55.621C109.908 55.5182 109.846 55.4249 109.767 55.3463C109.688 55.2677 109.595 55.2054 109.492 55.163C109.389 55.1206 109.278 55.099 109.167 55.0993H83.3601V52.9688C83.3601 52.7604 83.2833 52.5594 83.1445 52.404L60.757 27.3258V24.8883C61.48 25.2176 62.2642 25.3909 63.0586 25.3969C64.957 25.3969 66.5976 24.3844 68.1117 23.4516C70.4555 22.0102 72.293 20.8735 74.9367 22.7204C75.0644 22.8094 75.2141 22.8616 75.3695 22.8712C75.5249 22.8808 75.6799 22.8475 75.8176 22.7749C75.9553 22.7023 76.0704 22.5932 76.1502 22.4595C76.2301 22.3259 76.2716 22.1729 76.2703 22.0172V12.6001C76.2712 12.4622 76.2387 12.3262 76.1754 12.2037C76.1121 12.0812 76.02 11.9759 75.907 11.8969C72.3469 9.41021 69.6234 11.093 67.2211 12.5766C64.9219 13.9969 63.0961 15.1149 60.5109 13.3829C60.4212 13.2909 60.3113 13.221 60.1899 13.1787C60.0685 13.1364 59.9389 13.1229 59.8114 13.1393C59.6839 13.1557 59.562 13.2014 59.4552 13.273C59.3484 13.3445 59.2597 13.4399 59.1961 13.5516L59.182 13.5704C59.1538 13.6213 59.1303 13.6746 59.1117 13.7297C59.091 13.7945 59.0777 13.8613 59.0719 13.929C59.0719 13.9454 59.0719 13.9618 59.0719 13.9782V27.3376L36.6844 52.4157C36.5462 52.5713 36.4703 52.7724 36.4711 52.9805V55.1063H10.8328C10.7215 55.106 10.6112 55.1277 10.5083 55.17C10.4054 55.2124 10.3118 55.2747 10.233 55.3533C10.1542 55.4319 10.0917 55.5253 10.049 55.6281C10.0063 55.7309 9.98436 55.8411 9.98437 55.9524V97.1461C9.98499 97.3708 10.0746 97.586 10.2337 97.7446C10.3927 97.9032 10.6082 97.9922 10.8328 97.9922H20.5172V107.67H4.27499C4.05799 107.681 3.85364 107.775 3.70407 107.933C3.55451 108.091 3.47113 108.3 3.47113 108.517C3.47113 108.734 3.55451 108.943 3.70407 109.101C3.85364 109.258 4.05799 109.353 4.27499 109.364H115.725C115.942 109.353 116.146 109.258 116.296 109.101C116.445 108.943 116.529 108.734 116.529 108.517C116.529 108.3 116.445 108.091 116.296 107.933C116.146 107.775 115.942 107.681 115.725 107.67ZM83.5383 56.7938H108.321V96.2977H83.5383V56.7938ZM92.3766 97.9922V107.67H83.3601V97.9922H92.3766ZM68.1117 14.0251C70.3406 12.6516 72.1172 11.5524 74.5758 13.0571V20.5852C71.6555 19.2915 69.3164 20.7329 67.2211 22.0243C64.9969 23.3977 63.2156 24.4969 60.757 22.9946V15.4688C63.682 16.7602 66.0164 15.3188 68.1117 14.0251ZM36.4711 97.9922V107.67H27.6234V97.9922H36.4711ZM11.6812 56.7938H36.4617V96.2977H11.6812V56.7938ZM22.2141 107.67V97.9922H25.9289V107.67H22.2141ZM52.6476 107.67V94.1602H67.1789V107.67H52.6476ZM68.8687 107.67V93.3118C68.8681 93.0872 68.7785 92.8719 68.6194 92.7133C68.4604 92.5547 68.2449 92.4657 68.0203 92.4657H51.7969C51.6858 92.4657 51.5757 92.4876 51.4731 92.5301C51.3704 92.5726 51.2772 92.6349 51.1986 92.7135C51.12 92.7921 51.0577 92.8853 51.0152 92.988C50.9727 93.0906 50.9508 93.2007 50.9508 93.3118V107.67H38.1562V53.2946L59.9109 28.936L81.6656 53.2969V107.672L68.8687 107.67ZM94.0734 107.67V97.9922H97.7883V107.67H94.0734Z" fill="#050505"/>
</svg>
