<svg width="34" height="30" viewBox="0 0 34 30" fill="none" xmlns="http://www.w3.org/2000/svg">
<g id="Group">
<path id="Vector" d="M6.79168 27.6393C11.3127 26.4032 15.794 25.183 20.2708 23.9492C23.3313 23.1063 25.4004 21.1567 26.0953 17.9552C26.7636 14.8809 25.7766 12.2928 23.4221 10.2797C22.9263 9.85703 22.3466 9.53892 21.7114 9.1072C23.1786 6.98724 23.4907 4.63323 22.8179 1.99748C24.5794 1.99748 26.2701 1.99748 27.9608 1.99748C29.5232 1.99748 31.0877 2.01793 32.6501 1.99066C33.5662 1.97475 33.9978 2.4042 33.9978 3.32672C33.9978 11.7634 33.9978 20.2001 34 28.6368C34 29.6547 33.4335 30.0001 32.535 30.0001C24.4267 29.9978 16.3185 30.0024 8.21018 29.9956C6.91339 29.9956 6.68767 29.6184 6.79168 27.6393Z" fill="#C6F906"/>
<path id="Vector_2" d="M-2.28882e-05 26.1855C-2.28882e-05 23.0112 -2.28882e-05 19.9597 -2.28882e-05 16.8377C3.53628 15.8538 7.05931 14.8699 10.5846 13.8951C12.8573 13.2657 15.1322 12.6363 17.4115 12.0342C19.0336 11.6048 20.5207 11.9024 21.7489 13.1181C24.1079 15.4516 23.3024 19.4371 20.1423 20.5504C17.6815 21.4184 15.1255 22.0069 12.6072 22.7068C8.44905 23.861 4.28647 25.004 -2.28882e-05 26.1855Z" fill="#C6F906"/>
<path id="Vector_3" d="M6.75093 11.5842C6.75093 8.68028 6.74208 5.89002 6.75757 3.09975C6.762 2.4249 7.22451 2.14997 7.79545 1.99091C9.96415 1.38651 12.1196 0.734386 14.2971 0.173151C16.8464 -0.483516 19.1103 0.773013 19.8428 3.17246C20.5354 5.44466 19.3559 7.98044 16.9195 8.7689C13.6089 9.83911 10.2164 10.6389 6.75093 11.5842Z" fill="#C6F906"/>
</g>
</svg>
